<svg width="33" height="34" viewBox="0 0 33 34" fill="none" xmlns="http://www.w3.org/2000/svg">
<path d="M6.36396 25.5212L5.65685 26.2283L7.07107 27.6425L7.77817 26.9354L6.36396 25.5212ZM26.163 8.55063C26.5535 8.1601 26.5535 7.52694 26.163 7.13641C25.7724 6.74589 25.1393 6.74589 24.7487 7.13641L26.163 8.55063ZM12.0208 7.13641L11.3137 6.4293L9.89949 7.84352L10.6066 8.55063L12.0208 7.13641ZM25.5959 8.80288C26.1257 8.64703 26.4289 8.09118 26.2731 7.56133C26.1172 7.03149 25.5614 6.72831 25.0315 6.88416L25.5959 8.80288ZM24.6776 22.6217L25.3847 23.3289L26.7989 21.9146L26.0918 21.2075L24.6776 22.6217ZM7.77817 26.9354L26.0918 8.62175L24.6776 7.20754L6.36396 25.5212L7.77817 26.9354ZM26.0918 8.62175L26.163 8.55063L24.7487 7.13641L24.6776 7.20754L26.0918 8.62175ZM10.6066 8.55063C11.6478 9.59178 13.2045 10.0238 14.7421 10.1807C16.3111 10.3409 18.0464 10.2322 19.6341 10.0286C21.2293 9.82412 22.7161 9.5183 23.8012 9.26476C24.3448 9.13773 24.7902 9.02322 25.1011 8.94006C25.2566 8.89847 25.3785 8.86468 25.4625 8.84105C25.5044 8.82923 25.5369 8.81994 25.5594 8.81348C25.5706 8.81026 25.5793 8.80773 25.5854 8.80595C25.5884 8.80506 25.5908 8.80436 25.5926 8.80385C25.5935 8.80359 25.5942 8.80338 25.5947 8.80322C25.595 8.80314 25.5953 8.80305 25.5954 8.80301C25.5957 8.80294 25.5959 8.80288 25.3137 7.84352C25.0315 6.88416 25.0316 6.88412 25.0317 6.8841C25.0317 6.88411 25.0317 6.88409 25.0317 6.88411C25.0316 6.88414 25.0313 6.88422 25.0309 6.88435C25.03 6.8846 25.0285 6.88505 25.0263 6.88567C25.022 6.88693 25.0152 6.88892 25.0058 6.89162C24.9871 6.897 24.9584 6.9052 24.9204 6.91591C24.8443 6.93733 24.7308 6.9688 24.5842 7.008C24.291 7.08643 23.8664 7.19565 23.3461 7.31721C22.3034 7.56085 20.8869 7.85165 19.3798 8.04488C17.8653 8.23906 16.2994 8.32929 14.9451 8.19108C13.5594 8.04967 12.5707 7.68625 12.0208 7.13641L10.6066 8.55063ZM25.3847 7.91464C24.4642 7.52394 24.4641 7.52421 24.464 7.52451C24.4639 7.52466 24.4637 7.52501 24.4636 7.52531C24.4634 7.52592 24.463 7.52668 24.4627 7.52759C24.4619 7.5294 24.4609 7.53182 24.4596 7.53482C24.4571 7.54082 24.4536 7.54919 24.4492 7.55986C24.4403 7.58119 24.4278 7.61173 24.4119 7.651C24.3801 7.72954 24.335 7.84308 24.2796 7.98783C24.1689 8.27717 24.017 8.69203 23.8486 9.20185C23.5126 10.2188 23.1069 11.6267 22.8354 13.1779C22.5649 14.7228 22.4199 16.4515 22.6331 18.0958C22.8466 19.742 23.4294 21.3735 24.6776 22.6217L26.0918 21.2075C25.2543 20.37 24.7942 19.2086 24.6165 17.8387C24.4387 16.4669 24.5544 14.9564 24.8054 13.5227C25.0553 12.0953 25.4318 10.7854 25.7476 9.82918C25.9051 9.35241 26.0465 8.96683 26.1476 8.70238C26.1982 8.57023 26.2386 8.46855 26.2659 8.40108C26.2795 8.36735 26.2899 8.34219 26.2966 8.32607C26.2999 8.31802 26.3023 8.31222 26.3038 8.30875C26.3045 8.30701 26.305 8.30585 26.3053 8.30528C26.3054 8.305 26.3054 8.30486 26.3054 8.30487C26.3054 8.30488 26.3054 8.305 26.3054 8.305C26.3053 8.30515 26.3052 8.30535 25.3847 7.91464Z" fill="#1BB6FF"/>
</svg>
