<svg width="33" height="34" viewBox="0 0 33 34" fill="none" xmlns="http://www.w3.org/2000/svg">
<path d="M6.63593 25.5212L5.92883 26.2283L7.34304 27.6425L8.05015 26.9354L6.63593 25.5212ZM26.4349 8.55063C26.8254 8.1601 26.8254 7.52694 26.4349 7.13641C26.0444 6.74589 25.4112 6.74589 25.0207 7.13641L26.4349 8.55063ZM12.2928 7.13641L11.5857 6.4293L10.1715 7.84352L10.8786 8.55063L12.2928 7.13641ZM25.8679 8.80288C26.3977 8.64703 26.7009 8.09118 26.545 7.56133C26.3892 7.03149 25.8333 6.72831 25.3035 6.88416L25.8679 8.80288ZM24.9496 22.6217L25.6567 23.3289L27.0709 21.9146L26.3638 21.2075L24.9496 22.6217ZM8.05015 26.9354L26.3638 8.62175L24.9496 7.20754L6.63593 25.5212L8.05015 26.9354ZM26.3638 8.62175L26.4349 8.55063L25.0207 7.13641L24.9496 7.20754L26.3638 8.62175ZM10.8786 8.55063C11.9197 9.59178 13.4765 10.0238 15.0141 10.1807C16.5831 10.3409 18.3183 10.2322 19.9061 10.0286C21.5012 9.82412 22.9881 9.5183 24.0732 9.26476C24.6168 9.13773 25.0622 9.02322 25.373 8.94006C25.5285 8.89847 25.6505 8.86468 25.7344 8.84105C25.7764 8.82923 25.8089 8.81994 25.8313 8.81348C25.8425 8.81026 25.8512 8.80773 25.8573 8.80595C25.8604 8.80506 25.8628 8.80436 25.8646 8.80385C25.8654 8.80359 25.8662 8.80338 25.8667 8.80322C25.867 8.80314 25.8673 8.80305 25.8674 8.80301C25.8677 8.80294 25.8679 8.80288 25.5857 7.84352C25.3035 6.88416 25.3036 6.88412 25.3037 6.8841C25.3037 6.88411 25.3037 6.88409 25.3037 6.88411C25.3036 6.88414 25.3033 6.88422 25.3028 6.88435C25.302 6.8846 25.3005 6.88505 25.2983 6.88567C25.294 6.88693 25.2871 6.88892 25.2778 6.89162C25.2591 6.897 25.2304 6.9052 25.1924 6.91591C25.1163 6.93733 25.0028 6.9688 24.8562 7.008C24.563 7.08643 24.1384 7.19565 23.6181 7.31721C22.5754 7.56085 21.1589 7.85165 19.6518 8.04488C18.1373 8.23906 16.5714 8.32929 15.2171 8.19108C13.8314 8.04967 12.8426 7.68625 12.2928 7.13641L10.8786 8.55063ZM25.6567 7.91464C24.7362 7.52394 24.7361 7.52421 24.7359 7.52451C24.7359 7.52466 24.7357 7.52501 24.7356 7.52531C24.7353 7.52592 24.735 7.52668 24.7346 7.52759C24.7339 7.5294 24.7328 7.53182 24.7316 7.53482C24.7291 7.54082 24.7256 7.54919 24.7211 7.55986C24.7123 7.58119 24.6997 7.61173 24.6839 7.651C24.6521 7.72954 24.607 7.84308 24.5516 7.98783C24.4409 8.27717 24.2889 8.69203 24.1205 9.20185C23.7846 10.2188 23.3789 11.6267 23.1073 13.1779C22.8369 14.7228 22.6919 16.4515 22.9051 18.0958C23.1186 19.742 23.7013 21.3735 24.9496 22.6217L26.3638 21.2075C25.5263 20.37 25.0661 19.2086 24.8885 17.8387C24.7106 16.4669 24.8264 14.9564 25.0774 13.5227C25.3273 12.0953 25.7037 10.7854 26.0196 9.82918C26.1771 9.35241 26.3184 8.96683 26.4196 8.70238C26.4701 8.57023 26.5106 8.46855 26.5379 8.40108C26.5515 8.36735 26.5619 8.34219 26.5686 8.32607C26.5719 8.31802 26.5743 8.31222 26.5758 8.30875C26.5765 8.30701 26.577 8.30585 26.5772 8.30528C26.5774 8.305 26.5774 8.30486 26.5774 8.30487C26.5774 8.30488 26.5774 8.305 26.5774 8.305C26.5773 8.30515 26.5772 8.30535 25.6567 7.91464Z" fill="white"/>
</svg>
