<svg width="295" height="362" viewBox="0 0 295 362" fill="none" xmlns="http://www.w3.org/2000/svg">
<rect x="25" y="306" width="121.432" height="56.7162" rx="28.3581" fill="white"/>
<path d="M56.8177 324.98V334.996C56.8177 336.451 56.9632 337.646 57.2542 338.58C57.5605 339.514 58.0659 340.219 58.7704 340.694C59.4902 341.168 60.478 341.406 61.7339 341.406C63.4798 341.421 64.6897 340.908 65.3636 339.867C66.0528 338.81 66.3974 337.186 66.3974 334.996V324.98H68.3501V334.996C68.3501 336.865 68.151 338.404 67.7528 339.614C67.3546 340.824 66.6731 341.75 65.7082 342.394C64.7433 343.037 63.4186 343.358 61.7339 343.358C59.9726 343.358 58.5866 343.037 57.5758 342.394C56.5803 341.75 55.8758 340.824 55.4623 339.614C55.0641 338.404 54.865 336.865 54.865 334.996V324.98H56.8177ZM73.2846 324.98V343.358H71.3319V324.98H73.2846ZM83.268 327.277L77.6167 345.426H75.5721L81.2234 327.277H83.268ZM87.5082 324.98V334.996C87.5082 336.451 87.6536 337.646 87.9446 338.58C88.2509 339.514 88.7564 340.219 89.4609 340.694C90.1807 341.168 91.1685 341.406 92.4244 341.406C94.1703 341.421 95.3802 340.908 96.0541 339.867C96.7433 338.81 97.0879 337.186 97.0879 334.996V324.98H99.0406V334.996C99.0406 336.865 98.8415 338.404 98.4433 339.614C98.0451 340.824 97.3636 341.75 96.3987 342.394C95.4338 343.037 94.1091 343.358 92.4244 343.358C90.6631 343.358 89.2771 343.037 88.2663 342.394C87.2708 341.75 86.5663 340.824 86.1527 339.614C85.7545 338.404 85.5554 336.865 85.5554 334.996V324.98H87.5082ZM116.282 324.98L109.965 334.169L116.282 343.358H113.962L108.816 335.846L103.647 343.358H101.327L107.645 334.169L101.327 324.98H103.647L108.816 332.492L113.962 324.98H116.282Z" fill="#1BB6FF"/>
<rect x="149.585" y="276" width="148.432" height="56.7162" rx="28.3581" transform="rotate(14.9017 149.585 276)" fill="white"/>
<path d="M170.748 320.29L168.839 319.782L173.565 302.021L180.181 303.782C182.297 304.345 183.937 305.241 185.099 306.47C186.277 307.702 186.592 309.347 186.045 311.404C185.702 312.692 185.075 313.65 184.162 314.279C183.25 314.908 182.192 315.252 180.987 315.312C179.783 315.372 178.529 315.229 177.227 314.882L172.52 313.63L170.748 320.29ZM177.723 313.017C181.29 313.966 183.394 313.235 184.036 310.822C184.371 309.564 184.125 308.493 183.299 307.607C182.473 306.722 181.268 306.068 179.684 305.647L174.978 304.394L173.016 311.765L177.723 313.017ZM188.994 316.444C189.564 315.312 190.263 314.563 191.089 314.197C191.935 313.82 192.949 313.788 194.133 314.104L193.602 316.102C193.487 316.055 193.311 316.001 193.075 315.938C192.009 315.654 191.062 315.759 190.234 316.251C189.405 316.744 188.81 317.671 188.447 319.033L186.965 324.605L185.055 324.097L188.139 312.508L190.048 313.017L188.55 316.326L188.994 316.444ZM198.089 327.922C196.979 327.627 196.053 327.087 195.31 326.303C194.583 325.523 194.092 324.6 193.837 323.534C193.6 322.456 193.632 321.355 193.931 320.231C194.226 319.121 194.742 318.164 195.479 317.362C196.23 316.563 197.113 316.014 198.128 315.713C199.162 315.402 200.234 315.394 201.344 315.69C202.439 315.981 203.351 316.517 204.078 317.297C204.824 318.066 205.318 318.982 205.558 320.044C205.798 321.106 205.771 322.193 205.475 323.303C205.172 324.442 204.652 325.413 203.916 326.216C203.179 327.018 202.294 327.575 201.26 327.886C200.241 328.202 199.184 328.213 198.089 327.922ZM198.591 326.035C199.331 326.232 200.037 326.23 200.709 326.028C201.395 325.83 201.986 325.457 202.481 324.907C202.995 324.346 203.362 323.651 203.582 322.823C203.803 321.994 203.828 321.216 203.657 320.489C203.5 319.766 203.173 319.148 202.676 318.635C202.193 318.126 201.582 317.774 200.842 317.577C200.087 317.376 199.366 317.374 198.68 317.572C198.008 317.773 197.417 318.147 196.908 318.693C196.413 319.243 196.055 319.932 195.834 320.761C195.614 321.59 195.58 322.373 195.732 323.111C195.903 323.838 196.23 324.456 196.713 324.965C197.21 325.477 197.836 325.834 198.591 326.035ZM222.909 315.152L218.183 332.913L216.273 332.405L217.423 328.978L216.979 328.86C216.359 330.058 215.58 330.873 214.641 331.304C213.702 331.736 212.625 331.79 211.412 331.467C210.405 331.2 209.566 330.691 208.894 329.941C208.225 329.177 207.777 328.273 207.547 327.23C207.333 326.19 207.371 325.122 207.662 324.027C207.962 322.902 208.465 321.935 209.172 321.125C209.897 320.303 210.74 319.727 211.7 319.396C212.66 319.065 213.643 319.034 214.649 319.302C215.818 319.613 216.694 320.194 217.275 321.046C217.876 321.888 218.174 322.942 218.169 324.208L218.658 324.338L219.357 320.816L221 314.644L222.909 315.152ZM212.541 329.724C213.207 329.901 213.878 329.881 214.554 329.665C215.244 329.452 215.85 329.083 216.371 328.555C216.891 328.028 217.246 327.41 217.435 326.699C217.652 325.885 217.676 325.107 217.509 324.365C217.342 323.624 217.01 322.996 216.512 322.484C216.034 321.96 215.446 321.606 214.751 321.421C213.996 321.22 213.261 321.214 212.544 321.404C211.847 321.583 211.229 321.941 210.689 322.479C210.169 323.006 209.8 323.677 209.583 324.491C209.367 325.305 209.351 326.077 209.537 326.808C209.727 327.525 210.086 328.143 210.613 328.664C211.144 329.169 211.787 329.523 212.541 329.724ZM234.912 324.955L231.828 336.544L229.919 336.036L231.417 332.726L230.973 332.608C229.801 334.99 228.09 335.882 225.84 335.283C222.747 334.46 221.675 332.265 222.624 328.698L224.367 322.149L226.254 322.651L224.511 329.2C224.208 330.34 224.246 331.269 224.625 331.988C225.004 332.707 225.667 333.193 226.614 333.445C227.68 333.728 228.666 333.595 229.574 333.044C230.485 332.478 231.134 331.47 231.52 330.019L233.003 324.447L234.912 324.955ZM245.548 337.532C244.808 338.286 243.935 338.799 242.928 339.07C241.939 339.33 240.875 339.308 239.736 339.005C238.626 338.709 237.705 338.179 236.974 337.414C236.246 336.634 235.755 335.711 235.5 334.644C235.259 333.582 235.289 332.488 235.588 331.364C235.884 330.254 236.398 329.305 237.13 328.517C237.882 327.719 238.765 327.169 239.78 326.869C240.799 326.553 241.863 326.543 242.973 326.839C244.157 327.154 245.12 327.703 245.863 328.487C246.624 329.26 247.126 330.202 247.369 331.313L245.592 332.005C245.15 330.271 244.13 329.191 242.532 328.766C241.777 328.565 241.056 328.563 240.37 328.761C239.687 328.944 239.091 329.308 238.581 329.854C238.09 330.389 237.736 331.064 237.52 331.878C237.181 333.15 237.272 334.268 237.792 335.231C238.317 336.178 239.156 336.806 240.31 337.113C241.065 337.314 241.784 337.323 242.467 337.14C243.149 336.957 243.768 336.599 244.322 336.065L245.548 337.532ZM252.479 335.645C252.113 337.021 251.926 337.993 251.917 338.562C251.927 339.119 252.142 339.533 252.561 339.803C252.996 340.077 253.827 340.377 255.055 340.704L254.553 342.591C252.836 342.134 251.639 341.633 250.959 341.088C250.28 340.543 249.934 339.849 249.921 339.005C249.908 338.162 250.132 336.874 250.592 335.142L251.585 331.413L249.165 330.769L249.667 328.882L252.087 329.526L253.257 325.13L255.144 325.632L253.974 330.028L257.593 330.991L257.091 332.878L253.472 331.915L252.479 335.645Z" fill="#1BB6FF"/>
<rect x="181.384" y="225.956" width="124.432" height="56.7162" rx="28.3581" transform="rotate(14.9 181.384 225.956)" fill="white"/>
<path d="M212.091 253.766C213.841 254.216 215.055 254.927 215.731 255.9C216.407 256.872 216.58 257.98 216.249 259.223C216.013 260.111 215.527 260.806 214.791 261.307C214.06 261.794 213.249 261.983 212.359 261.873C213.848 262.411 214.95 263.212 215.666 264.274C216.386 265.321 216.561 266.541 216.191 267.932C215.694 269.797 214.643 271.007 213.038 271.562C211.447 272.121 209.556 272.11 207.365 271.527L200.639 269.737L205.364 251.976L212.091 253.766ZM210.325 260.404C211.435 260.7 212.321 260.706 212.983 260.422C213.663 260.128 214.102 259.61 214.299 258.87C214.488 258.16 214.356 257.523 213.904 256.959C213.467 256.399 212.693 255.971 211.583 255.676L206.766 254.394L205.507 259.122L210.325 260.404ZM207.873 269.617C209.768 270.122 211.222 270.136 212.236 269.661C213.254 269.171 213.906 268.386 214.194 267.305C214.47 266.269 214.269 265.297 213.592 264.388C212.914 263.478 211.658 262.78 209.823 262.291L205.005 261.009L203.056 268.336L207.873 269.617ZM220.88 266.422C221.451 265.29 222.149 264.541 222.976 264.175C223.821 263.797 224.836 263.766 226.02 264.081L225.488 266.079C225.374 266.033 225.198 265.978 224.961 265.915C223.896 265.632 222.949 265.736 222.12 266.229C221.292 266.722 220.696 267.649 220.334 269.011L218.851 274.583L216.942 274.075L220.026 262.486L221.935 262.994L220.436 266.304L220.88 266.422ZM232.824 265.654C234.512 266.103 235.677 266.904 236.321 268.058C236.969 269.197 237.096 270.507 236.702 271.987L234.877 278.847L233.034 278.357L234.306 274.915L233.929 274.815C233.261 276.016 232.472 276.836 231.563 277.276C230.653 277.715 229.666 277.793 228.6 277.51C227.164 277.128 226.193 276.52 225.685 275.688C225.178 274.856 225.058 273.936 225.326 272.93C225.7 271.524 226.5 270.659 227.727 270.336C228.955 270.013 230.597 270.125 232.654 270.672L234.963 271.286C235.155 270.387 235.005 269.61 234.513 268.956C234.025 268.287 233.293 267.823 232.316 267.563C231.532 267.354 230.841 267.361 230.243 267.582C229.645 267.803 229.047 268.207 228.447 268.792L227.195 267.246C228.027 266.501 228.88 265.975 229.754 265.669C230.646 265.352 231.67 265.347 232.824 265.654ZM229.241 275.636C230.396 275.943 231.417 275.827 232.306 275.286C233.198 274.731 233.904 273.897 234.422 272.783L232.246 272.204C230.752 271.806 229.594 271.688 228.775 271.851C227.959 271.998 227.448 272.457 227.244 273.226C227.102 273.759 227.195 274.243 227.523 274.679C227.854 275.1 228.427 275.419 229.241 275.636ZM246.848 269.29C249.942 270.113 251.014 272.308 250.065 275.875L248.322 282.424L246.435 281.922L248.178 275.373C248.481 274.234 248.443 273.304 248.064 272.585C247.684 271.866 247.021 271.381 246.074 271.129C245.008 270.845 244.02 270.986 243.109 271.552C242.201 272.103 241.555 273.104 241.169 274.554L239.686 280.127L237.777 279.619L240.86 268.03L242.77 268.538L241.271 271.848L241.715 271.966C242.888 269.584 244.599 268.692 246.848 269.29ZM267.305 268.458L262.579 286.218L260.67 285.71L261.819 282.284L261.375 282.165C260.755 283.363 259.976 284.178 259.037 284.61C258.098 285.041 257.022 285.096 255.808 284.773C254.802 284.505 253.962 283.997 253.29 283.247C252.622 282.483 252.173 281.579 251.944 280.535C251.729 279.496 251.767 278.428 252.059 277.333C252.358 276.208 252.861 275.241 253.568 274.43C254.294 273.609 255.136 273.033 256.096 272.702C257.056 272.371 258.039 272.339 259.045 272.607C260.215 272.918 261.09 273.5 261.671 274.352C262.272 275.193 262.57 276.247 262.566 277.514L263.054 277.644L263.753 274.121L265.396 267.95L267.305 268.458ZM256.938 283.029C257.604 283.206 258.275 283.187 258.95 282.97C259.641 282.758 260.246 282.388 260.767 281.861C261.288 281.334 261.642 280.715 261.831 280.005C262.048 279.191 262.073 278.413 261.906 277.671C261.738 276.929 261.406 276.302 260.909 275.789C260.43 275.266 259.843 274.911 259.147 274.726C258.392 274.525 257.657 274.52 256.941 274.71C256.243 274.888 255.625 275.247 255.086 275.785C254.565 276.312 254.196 276.983 253.98 277.797C253.763 278.611 253.748 279.383 253.934 280.114C254.123 280.83 254.482 281.449 255.009 281.969C255.54 282.475 256.183 282.828 256.938 283.029Z" fill="#1BB6FF"/>
<rect x="-3.28003" y="254.998" width="160.432" height="56.7162" rx="28.3581" transform="rotate(-6.40113 -3.28003 254.998)" fill="white"/>
<path d="M41.8597 270.998L30.6731 272.253L31.3723 278.486L41.0724 277.374L41.2901 279.315L31.5875 280.403L32.5044 288.576L30.5639 288.794L28.5149 270.53L30.4554 270.312L30.458 270.335L41.642 269.057L41.8597 270.998ZM45.7215 278.633C45.8419 277.371 46.2206 276.419 46.8575 275.777C47.508 275.119 48.442 274.721 49.6596 274.585L49.8901 276.639C49.7666 276.638 49.5831 276.651 49.3396 276.678C48.2438 276.801 47.3994 277.242 46.8066 278.002C46.2138 278.762 45.9959 279.842 46.153 281.243L46.7959 286.973L44.8325 287.193L43.4955 275.276L45.4589 275.056L45.2649 278.684L45.7215 278.633ZM58.3651 286.022C57.2236 286.15 56.1647 285.984 55.1883 285.523C54.2272 285.06 53.4341 284.379 52.809 283.478C52.1975 282.56 51.8268 281.523 51.6971 280.366C51.569 279.225 51.7023 278.147 52.097 277.131C52.5069 276.114 53.1301 275.282 53.9666 274.633C54.8166 273.967 55.8124 273.571 56.9539 273.443C58.0801 273.316 59.1238 273.484 60.085 273.947C61.0596 274.392 61.8519 275.066 62.4617 275.969C63.0715 276.871 63.4405 277.893 63.5685 279.035C63.7 280.206 63.5684 281.3 63.1737 282.315C62.779 283.33 62.1567 284.171 61.3067 284.836C60.4719 285.5 59.4914 285.895 58.3651 286.022ZM58.1474 284.081C58.9084 283.996 59.5652 283.737 60.1178 283.305C60.6856 282.872 61.1002 282.309 61.3616 281.617C61.6365 280.908 61.7262 280.127 61.6306 279.275C61.535 278.423 61.2754 277.689 60.8519 277.074C60.4437 276.457 59.9147 276 59.2649 275.703C58.6303 275.404 57.9326 275.298 57.1716 275.383C56.3953 275.47 55.7233 275.731 55.1555 276.164C54.6029 276.596 54.1883 277.159 53.9117 277.852C53.6503 278.544 53.5674 279.317 53.663 280.169C53.7586 281.021 54.0114 281.763 54.4214 282.396C54.8448 283.011 55.3739 283.468 56.0084 283.766C56.6582 284.063 57.3712 284.168 58.1474 284.081ZM71.2251 271.842C74.4061 271.485 76.2023 273.14 76.6138 276.808L77.3694 283.543L75.4289 283.761L74.6733 277.026C74.5418 275.854 74.1688 275.002 73.5543 274.47C72.9398 273.938 72.1455 273.726 71.1715 273.836C70.0756 273.959 69.206 274.449 68.5625 275.307C67.9173 276.15 67.6784 277.317 67.8457 278.809L68.4886 284.539L66.5252 284.76L65.1883 272.842L67.1516 272.622L66.9576 276.25L67.4142 276.199C67.6414 273.554 68.9117 272.101 71.2251 271.842ZM83.3968 276.648C83.5556 278.064 83.7342 279.038 83.9327 279.57C84.1447 280.086 84.4951 280.393 84.984 280.493C85.4881 280.59 86.3718 280.568 87.635 280.426L87.8527 282.367C86.0872 282.565 84.7891 282.533 83.9584 282.272C83.1277 282.011 82.5529 281.49 82.2341 280.709C81.9154 279.928 81.6561 278.647 81.4563 276.866L81.026 273.031L78.5376 273.31L78.3199 271.369L80.8083 271.09L80.3012 266.57L82.2417 266.352L82.7488 270.872L86.4701 270.455L86.6878 272.395L82.9665 272.813L83.3968 276.648ZM91.5401 276.706C91.8153 277.784 92.3472 278.611 93.136 279.185C93.9382 279.742 94.8797 279.96 95.9603 279.839C96.7365 279.752 97.4178 279.506 98.0043 279.101C98.6042 278.679 99.0662 278.127 99.3902 277.443L100.944 278.309C100.53 279.296 99.903 280.09 99.0613 280.693C98.2349 281.295 97.2738 281.657 96.178 281.78C95.0365 281.908 93.9784 281.749 93.0038 281.304C92.0274 280.843 91.2267 280.162 90.6016 279.261C89.9766 278.36 89.5992 277.332 89.4694 276.175C89.3431 275.049 89.4848 273.977 89.8947 272.96C90.3046 271.943 90.9355 271.11 91.7872 270.459C92.6524 269.792 93.6482 269.395 94.7744 269.269C96.0072 269.131 97.1152 269.322 98.0984 269.844C99.0816 270.365 99.8613 271.133 100.437 272.147C101.029 273.16 101.358 274.31 101.425 275.597L91.5401 276.706ZM94.9896 271.187C93.9394 271.304 93.0858 271.732 92.4286 272.468C91.785 273.187 91.4384 274.082 91.3888 275.151L99.3336 274.259C99.0601 273.196 98.5383 272.391 97.7682 271.846C96.9964 271.285 96.0702 271.065 94.9896 271.187ZM109.015 267.602C112.196 267.245 113.992 268.901 114.403 272.569L115.159 279.303L113.218 279.521L112.463 272.786C112.331 271.614 111.958 270.762 111.344 270.23C110.729 269.698 109.935 269.487 108.961 269.596C107.865 269.719 106.995 270.21 106.352 271.068C105.707 271.911 105.468 273.078 105.635 274.569L106.278 280.3L104.315 280.52L102.978 268.603L104.941 268.383L104.747 272.011L105.204 271.959C105.431 269.314 106.701 267.862 109.015 267.602ZM127.771 259.395L129.82 277.659L127.857 277.879L127.683 274.269L127.226 274.32C127.084 275.662 126.654 276.704 125.936 277.447C125.218 278.19 124.235 278.632 122.987 278.772C121.952 278.888 120.985 278.719 120.086 278.265C119.186 277.796 118.44 277.117 117.847 276.228C117.269 275.337 116.917 274.329 116.791 273.202C116.661 272.046 116.778 270.961 117.142 269.95C117.52 268.921 118.096 268.078 118.87 267.421C119.644 266.764 120.548 266.377 121.583 266.261C122.786 266.126 123.812 266.35 124.664 266.933C125.529 267.498 126.189 268.372 126.645 269.554L127.148 269.498L126.52 265.962L125.808 259.615L127.771 259.395ZM123.406 276.737C124.091 276.66 124.708 276.398 125.259 275.951C125.825 275.502 126.255 274.938 126.549 274.258C126.842 273.577 126.948 272.872 126.866 272.141C126.772 271.304 126.513 270.571 126.088 269.94C125.662 269.31 125.125 268.846 124.475 268.549C123.839 268.235 123.163 268.118 122.448 268.199C121.672 268.286 120.984 268.548 120.386 268.985C119.801 269.405 119.355 269.963 119.048 270.661C118.755 271.341 118.655 272.099 118.749 272.936C118.843 273.774 119.109 274.499 119.548 275.112C119.985 275.711 120.543 276.156 121.224 276.45C121.902 276.728 122.629 276.824 123.406 276.737Z" fill="#1BB6FF"/>
<rect x="-3.32129" y="195.347" width="241.432" height="56.7162" rx="28.3581" transform="rotate(-5.17096 -3.32129 195.347)" fill="white"/>
<path d="M45.1827 218.988C45.4449 221.886 45.0273 224.238 43.9298 226.044C42.8308 227.835 40.8629 228.859 38.0258 229.116C36.2565 229.276 34.7181 229.016 33.4109 228.334C32.1036 227.653 31.0745 226.646 30.3235 225.315C29.5725 223.984 29.1156 222.418 28.9527 220.618C28.7912 218.834 28.9541 217.235 29.4414 215.822C29.9439 214.408 30.7784 213.264 31.9449 212.389C33.1099 211.5 34.5772 210.975 36.3465 210.815C39.9462 210.489 42.5844 211.772 44.261 214.666L42.6547 216.033C42.0091 214.846 41.1844 213.975 40.1807 213.42C39.1771 212.865 37.9584 212.652 36.5246 212.782C35.2586 212.897 34.1797 213.294 33.2878 213.975C32.4112 214.654 31.7695 215.55 31.3628 216.663C30.9561 217.776 30.8162 219.035 30.9432 220.438C31.0757 221.902 31.4433 223.161 32.0461 224.213C32.6474 225.251 33.4409 226.033 34.4266 226.558C35.4261 227.068 36.5665 227.264 37.8477 227.148C39.6157 226.973 40.9596 226.359 41.8793 225.307C42.799 224.255 43.3009 222.834 43.3848 221.042L37.1387 221.607L36.971 219.754L43.3294 219.156L45.1827 218.988ZM49.3173 219.652C49.4648 218.393 49.8638 217.449 50.5144 216.822C51.1788 216.177 52.1211 215.8 53.3414 215.689L53.5277 217.748C53.4043 217.744 53.2206 217.753 52.9765 217.775C51.8783 217.875 51.0247 218.298 50.4157 219.045C49.8067 219.792 49.5657 220.867 49.6927 222.27L50.2124 228.013L48.2447 228.191L47.1639 216.248L49.1315 216.07L48.8597 219.693L49.3173 219.652ZM60.2725 214.831C62.0113 214.674 63.3811 215.027 64.3819 215.89C65.3813 216.737 65.95 217.924 66.088 219.449L66.7278 226.519L64.8288 226.691L64.8428 223.022L64.4538 223.057C64.2383 224.414 63.7789 225.455 63.0757 226.18C62.3724 226.905 61.4716 227.317 60.3734 227.417C58.8938 227.551 57.7729 227.314 57.0105 226.706C56.2481 226.098 55.82 225.276 55.7262 224.239C55.595 222.79 56.0503 221.703 57.0919 220.978C58.1335 220.253 59.7144 219.795 61.8346 219.603L64.214 219.388C64.0855 218.477 63.6781 217.799 62.9919 217.353C62.3044 216.893 61.4572 216.708 60.4505 216.799C59.6421 216.872 58.9952 217.115 58.5097 217.528C58.0242 217.941 57.6004 218.525 57.2382 219.281L55.531 218.259C56.0569 217.273 56.6778 216.487 57.3935 215.899C58.1231 215.295 59.0827 214.939 60.2725 214.831ZM60.3326 225.437C61.5223 225.329 62.4418 224.869 63.0911 224.057C63.739 223.229 64.1151 222.203 64.2196 220.979L61.9774 221.182C60.4369 221.321 59.3095 221.608 58.5952 222.042C57.8796 222.46 57.5576 223.066 57.6294 223.859C57.6791 224.408 57.9327 224.831 58.3901 225.128C58.8462 225.41 59.4937 225.513 60.3326 225.437ZM74.9412 213.481C75.9784 213.387 76.942 213.584 77.832 214.073C78.7219 214.561 79.4475 215.272 80.0087 216.205C80.5851 217.137 80.9265 218.191 81.0328 219.365C81.1336 220.479 80.9827 221.53 80.5802 222.52C80.1915 223.493 79.6033 224.3 78.8154 224.94C78.0262 225.565 77.113 225.925 76.0758 226.019C74.8556 226.129 73.8192 225.892 72.9667 225.308C72.1128 224.709 71.476 223.79 71.0564 222.552L70.5759 222.595L71.5398 230.697L69.5721 230.875L68.0772 214.356L70.0448 214.178L70.1432 217.813L70.6237 217.77C70.8142 216.476 71.2763 215.466 72.0101 214.738C72.7439 214.01 73.7209 213.591 74.9412 213.481ZM75.2571 224.109C76.035 224.039 76.7208 223.8 77.3144 223.392C77.9233 222.984 78.3818 222.442 78.6899 221.769C79.0118 221.078 79.1356 220.321 79.061 219.497C78.9837 218.643 78.7324 217.905 78.3069 217.282C77.8815 216.659 77.3326 216.202 76.6602 215.909C75.9865 215.601 75.2606 215.482 74.4827 215.552C73.7964 215.614 73.1647 215.856 72.5877 216.277C72.0259 216.697 71.591 217.244 71.2829 217.918C70.9734 218.576 70.8525 219.279 70.9202 220.027C70.9947 220.85 71.2384 221.589 71.6514 222.244C72.0629 222.883 72.5841 223.374 73.2148 223.717C73.8595 224.043 74.5402 224.174 75.2571 224.109ZM89.0196 212.137C92.1922 211.85 93.9449 213.545 94.2775 217.221L94.8883 223.97L92.9436 224.146L92.3328 217.397C92.2265 216.222 91.8719 215.362 91.2689 214.817C90.666 214.272 89.8841 214.043 88.9231 214.13C87.8249 214.229 86.9373 214.702 86.2603 215.547C85.5972 216.376 85.3332 217.538 85.4685 219.033L85.9882 224.776L84.0206 224.954L82.3642 206.65L84.3318 206.472L84.9074 212.833L84.6355 216.456L85.116 216.412C85.3694 213.775 86.6706 212.35 89.0196 212.137ZM97.9414 209.715C97.5601 209.75 97.2287 209.657 96.9473 209.436C96.6798 209.199 96.5295 208.897 96.4964 208.531C96.4632 208.165 96.5577 207.849 96.7796 207.583C97.0154 207.3 97.324 207.142 97.7054 207.107C98.0562 207.075 98.3653 207.178 98.6329 207.415C98.9142 207.636 99.0715 207.929 99.1046 208.295C99.1378 208.661 99.0364 208.986 98.8006 209.269C98.5786 209.535 98.2922 209.684 97.9414 209.715ZM97.1315 211.726L99.0763 211.55L100.157 223.493L98.2123 223.669L97.1315 211.726ZM114.388 219.622C113.952 220.584 113.308 221.365 112.455 221.965C111.616 222.549 110.609 222.894 109.435 223C108.291 223.103 107.244 222.921 106.294 222.454C105.343 221.971 104.565 221.272 103.959 220.358C103.369 219.443 103.021 218.406 102.917 217.246C102.813 216.102 102.97 215.035 103.388 214.044C103.82 213.036 104.461 212.216 105.311 211.586C106.16 210.94 107.156 210.565 108.3 210.462C109.52 210.351 110.614 210.537 111.58 211.019C112.56 211.483 113.355 212.196 113.964 213.156L112.533 214.415C111.523 212.938 110.194 212.274 108.547 212.423C107.769 212.494 107.091 212.74 106.514 213.161C105.936 213.567 105.501 214.114 105.21 214.801C104.932 215.472 104.831 216.227 104.907 217.066C105.026 218.378 105.495 219.397 106.314 220.122C107.132 220.832 108.135 221.134 109.325 221.026C110.103 220.956 110.781 220.717 111.36 220.311C111.938 219.905 112.396 219.356 112.733 218.665L114.388 219.622ZM118.465 217.846C118.905 218.621 119.415 219.167 119.998 219.484C120.58 219.8 121.252 219.924 122.015 219.855C122.945 219.77 123.664 219.552 124.17 219.198C124.676 218.845 124.909 218.439 124.867 217.982C124.825 217.509 124.608 217.152 124.217 216.91C123.84 216.652 123.153 216.453 122.156 216.313L121.382 216.175C119.808 215.948 118.676 215.582 117.984 215.075C117.292 214.569 116.904 213.843 116.818 212.897C116.767 212.333 116.88 211.8 117.158 211.298C117.449 210.78 117.91 210.346 118.539 209.997C119.183 209.631 119.978 209.405 120.923 209.32C122.113 209.212 123.122 209.397 123.949 209.876C124.777 210.355 125.48 211.068 126.057 212.015L124.503 213.194C124.035 212.436 123.518 211.907 122.952 211.604C122.402 211.3 121.784 211.179 121.097 211.241C120.212 211.321 119.592 211.516 119.235 211.825C118.878 212.119 118.717 212.464 118.752 212.861C118.79 213.273 118.98 213.594 119.324 213.824C119.668 214.054 120.301 214.251 121.223 214.413L121.994 214.528C123.615 214.766 124.78 215.152 125.49 215.688C126.214 216.207 126.618 216.931 126.702 217.862C126.754 218.441 126.614 219.015 126.281 219.584C125.948 220.152 125.431 220.637 124.729 221.039C124.027 221.441 123.18 221.687 122.189 221.776C120.938 221.89 119.884 221.716 119.028 221.255C118.171 220.794 117.428 220.062 116.799 219.058L118.465 217.846ZM139.704 201.461C142.983 201.164 145.436 201.757 147.062 203.24C148.686 204.708 149.626 206.853 149.882 209.675C150.14 212.527 149.604 214.851 148.275 216.648C146.945 218.429 144.64 219.468 141.36 219.765L135.16 220.326L133.504 202.022L135.448 201.846L135.45 201.869L139.704 201.461ZM141.184 217.82C143.715 217.576 145.525 216.758 146.614 215.368C147.703 213.978 148.144 212.138 147.937 209.851C147.738 207.654 146.971 205.978 145.636 204.823C144.316 203.65 142.397 203.178 139.88 203.406L135.624 203.791L136.931 218.228L141.184 217.82ZM154.533 213.336C154.785 214.421 155.299 215.259 156.075 215.85C156.865 216.424 157.802 216.662 158.885 216.564C159.663 216.494 160.349 216.262 160.944 215.87C161.553 215.462 162.027 214.919 162.365 214.242L163.9 215.141C163.465 216.119 162.821 216.9 161.967 217.485C161.128 218.068 160.159 218.41 159.061 218.509C157.917 218.612 156.862 218.431 155.897 217.965C154.931 217.483 154.145 216.785 153.54 215.871C152.934 214.957 152.579 213.921 152.474 212.762C152.372 211.633 152.537 210.565 152.968 209.557C153.4 208.549 154.048 207.729 154.914 207.097C155.793 206.448 156.797 206.073 157.926 205.971C159.162 205.859 160.265 206.074 161.237 206.617C162.209 207.16 162.972 207.944 163.526 208.97C164.095 209.995 164.4 211.152 164.44 212.44L154.533 213.336ZM158.1 207.893C157.047 207.988 156.185 208.397 155.512 209.119C154.853 209.824 154.487 210.711 154.415 211.779L162.377 211.058C162.126 209.989 161.622 209.173 160.864 208.611C160.104 208.034 159.183 207.795 158.1 207.893ZM168.626 213.307C169.065 214.082 169.576 214.628 170.158 214.944C170.741 215.261 171.413 215.384 172.176 215.315C173.106 215.231 173.824 215.012 174.331 214.659C174.837 214.305 175.069 213.9 175.028 213.442C174.985 212.97 174.768 212.612 174.377 212.371C174 212.113 173.313 211.914 172.316 211.773L171.543 211.636C169.969 211.409 168.836 211.042 168.145 210.536C167.453 210.03 167.064 209.304 166.979 208.358C166.928 207.794 167.041 207.261 167.318 206.759C167.61 206.24 168.07 205.806 168.7 205.457C169.344 205.091 170.138 204.866 171.084 204.78C172.274 204.673 173.282 204.858 174.11 205.337C174.937 205.815 175.64 206.528 176.218 207.476L174.664 208.654C174.195 207.897 173.678 207.367 173.113 207.065C172.563 206.761 171.944 206.64 171.258 206.702C170.373 206.782 169.753 206.977 169.396 207.286C169.038 207.58 168.877 207.925 168.913 208.321C168.95 208.733 169.141 209.054 169.485 209.285C169.828 209.515 170.461 209.711 171.383 209.874L172.155 209.989C173.776 210.226 174.941 210.613 175.651 211.149C176.374 211.667 176.778 212.392 176.862 213.323C176.915 213.902 176.775 214.476 176.442 215.045C176.109 215.613 175.591 216.098 174.889 216.5C174.188 216.902 173.341 217.147 172.35 217.237C171.099 217.35 170.045 217.177 169.188 216.716C168.332 216.255 167.589 215.523 166.96 214.519L168.626 213.307ZM179.673 202.319C179.292 202.354 178.96 202.26 178.679 202.04C178.411 201.803 178.261 201.501 178.228 201.135C178.195 200.769 178.289 200.453 178.511 200.187C178.747 199.904 179.056 199.745 179.437 199.711C179.788 199.679 180.097 199.782 180.365 200.019C180.646 200.24 180.803 200.533 180.836 200.899C180.869 201.265 180.768 201.589 180.532 201.872C180.31 202.138 180.024 202.287 179.673 202.319ZM178.863 204.33L180.808 204.154L181.889 216.097L179.944 216.273L178.863 204.33ZM191.195 219.868C189.837 219.991 188.695 219.856 187.767 219.463C186.855 219.069 186.077 218.463 185.434 217.645L186.911 216.381C187.402 217.044 187.967 217.508 188.606 217.773C189.26 218.036 190.068 218.125 191.029 218.038C192.386 217.915 193.418 217.422 194.124 216.558C194.846 215.693 195.217 214.614 195.238 213.32L195.283 211.263L194.802 211.307C194.456 213.937 193.017 215.367 190.485 215.596C189.478 215.687 188.523 215.497 187.619 215.025C186.729 214.536 185.997 213.841 185.424 212.94C184.849 212.023 184.509 210.993 184.406 209.849C184.302 208.705 184.444 207.639 184.831 206.65C185.234 205.66 185.83 204.853 186.619 204.228C187.408 203.603 188.321 203.243 189.359 203.149C190.533 203.043 191.547 203.282 192.399 203.866C193.265 204.434 193.915 205.321 194.347 206.527L194.85 206.482L194.298 202.933L196.266 202.755L197.024 211.129C197.26 213.737 196.877 215.794 195.875 217.299C194.875 218.82 193.315 219.676 191.195 219.868ZM190.954 213.639C191.625 213.578 192.243 213.353 192.807 212.964C193.387 212.573 193.83 212.033 194.137 211.344C194.459 210.654 194.578 209.851 194.496 208.936C194.376 207.609 193.916 206.612 193.118 205.946C192.333 205.264 191.354 204.976 190.179 205.082C189.401 205.152 188.708 205.392 188.099 205.801C187.49 206.21 187.024 206.752 186.701 207.427C186.393 208.1 186.276 208.849 186.351 209.673C186.428 210.527 186.679 211.265 187.105 211.888C187.545 212.51 188.103 212.974 188.776 213.282C189.45 213.59 190.176 213.709 190.954 213.639ZM204.842 201.656C208.03 201.367 209.79 203.061 210.123 206.737L210.734 213.487L208.789 213.663L208.178 206.913C208.072 205.739 207.717 204.879 207.114 204.334C206.512 203.789 205.722 203.56 204.746 203.648C203.648 203.748 202.768 204.22 202.106 205.064C201.443 205.893 201.179 207.055 201.314 208.549L201.834 214.292L199.866 214.47L198.785 202.527L200.753 202.349L200.481 205.972L200.939 205.931C201.223 203.291 202.524 201.866 204.842 201.656Z" fill="#1BB6FF"/>
<rect x="230.104" y="103" width="108.432" height="56.7162" rx="28.3581" transform="rotate(45 230.104 103)" fill="white"/>
<path d="M247.207 146.944L245.826 148.324L241.814 144.312L230.199 155.927L228.818 154.546L240.433 142.931L236.421 138.919L237.802 137.538L247.207 146.944ZM244.999 151.039C244.729 150.768 244.588 150.454 244.577 150.097C244.588 149.739 244.723 149.431 244.983 149.171C245.243 148.911 245.546 148.781 245.893 148.781C246.261 148.781 246.581 148.916 246.851 149.187C247.1 149.436 247.22 149.739 247.209 150.097C247.22 150.454 247.095 150.763 246.835 151.023C246.575 151.283 246.261 151.413 245.893 151.413C245.546 151.413 245.249 151.288 244.999 151.039ZM242.936 151.705L244.317 153.086L235.838 161.565L234.457 160.184L242.936 151.705ZM251.175 150.911L252.555 152.292L239.56 165.287L238.179 163.907L251.175 150.911ZM262.977 162.714L249.982 175.709L248.585 174.312L251.298 171.924L250.973 171.6C249.836 172.325 248.753 172.639 247.724 172.542C246.695 172.444 245.737 171.952 244.849 171.064C244.112 170.327 243.641 169.466 243.435 168.481C243.24 167.484 243.305 166.477 243.63 165.459C243.966 164.452 244.535 163.548 245.336 162.746C246.159 161.923 247.079 161.339 248.097 160.992C249.137 160.645 250.155 160.57 251.151 160.765C252.148 160.96 253.014 161.425 253.75 162.162C254.606 163.017 255.072 163.959 255.148 164.988C255.245 166.017 254.974 167.078 254.335 168.172L254.693 168.529L257.064 165.833L261.58 161.317L262.977 162.714ZM246.7 170.121C247.188 170.609 247.778 170.928 248.471 171.08C249.175 171.242 249.884 171.226 250.599 171.031C251.314 170.836 251.931 170.479 252.451 169.959C253.047 169.363 253.458 168.703 253.686 167.977C253.913 167.251 253.94 166.542 253.767 165.849C253.615 165.156 253.285 164.555 252.776 164.046C252.224 163.494 251.59 163.12 250.875 162.925C250.182 162.73 249.467 162.73 248.731 162.925C248.016 163.12 247.361 163.515 246.765 164.111C246.17 164.707 245.769 165.367 245.563 166.093C245.368 166.807 245.368 167.522 245.563 168.237C245.769 168.941 246.148 169.569 246.7 170.121ZM264.043 172.487C265.278 173.721 265.884 174.999 265.862 176.32C265.851 177.631 265.305 178.827 264.222 179.91L259.202 184.93L257.854 183.581L260.68 181.242L260.404 180.966C259.224 181.67 258.13 181.984 257.123 181.908C256.116 181.832 255.222 181.405 254.443 180.625C253.392 179.574 252.856 178.562 252.834 177.587C252.813 176.613 253.17 175.757 253.906 175.021C254.935 173.992 256.062 173.645 257.285 173.981C258.509 174.317 259.874 175.237 261.379 176.743L263.068 178.432C263.686 177.75 263.945 177.002 263.848 176.19C263.761 175.367 263.361 174.598 262.646 173.884C262.072 173.31 261.471 172.968 260.843 172.86C260.215 172.752 259.495 172.801 258.682 173.006L258.374 171.041C259.467 170.813 260.469 170.786 261.379 170.96C262.31 171.133 263.198 171.642 264.043 172.487ZM255.937 179.325C256.782 180.17 257.724 180.582 258.764 180.56C259.814 180.528 260.843 180.159 261.85 179.455L260.258 177.863C259.164 176.77 258.222 176.087 257.431 175.817C256.652 175.535 255.98 175.676 255.417 176.239C255.027 176.629 254.865 177.095 254.93 177.636C255.006 178.167 255.341 178.73 255.937 179.325Z" fill="#1BB6FF"/>
<rect x="-3.14551" y="139.19" width="201.432" height="56.7162" rx="28.3581" transform="rotate(-5.17 -3.14551 139.19)" fill="white"/>
<path d="M31.932 173.527L29.9643 173.705L28.3082 155.402L35.1263 154.785C37.3075 154.587 39.155 154.866 40.6689 155.621C42.1979 156.375 43.0584 157.812 43.2502 159.932C43.3703 161.259 43.1098 162.374 42.4688 163.278C41.8279 164.182 40.9519 164.868 39.8411 165.338C38.7302 165.808 37.5037 166.103 36.1614 166.225L31.3109 166.663L31.932 173.527ZM35.9875 164.303C39.6635 163.97 41.389 162.561 41.164 160.074C41.0467 158.778 40.4481 157.856 39.3682 157.307C38.2883 156.759 36.9323 156.559 35.3002 156.707L30.4498 157.145L31.137 164.741L35.9875 164.303ZM47.7498 163.654C47.8973 162.395 48.2964 161.451 48.947 160.823C49.6114 160.179 50.5538 159.801 51.774 159.691L51.9603 161.75C51.8369 161.746 51.6532 161.755 51.4091 161.777C50.3109 161.876 49.4573 162.3 48.8483 163.047C48.2392 163.794 47.9982 164.869 48.1252 166.272L48.6448 172.015L46.6771 172.193L45.5965 160.25L47.5642 160.072L47.2922 163.695L47.7498 163.654ZM55.7498 166.136C56.0017 167.22 56.5157 168.058 57.292 168.649C58.0821 169.224 59.0186 169.462 60.1016 169.364C60.8795 169.293 61.5659 169.062 62.1609 168.67C62.7698 168.261 63.2436 167.719 63.5822 167.042L65.1168 167.941C64.6823 168.919 64.0379 169.7 63.1836 170.284C62.3444 170.868 61.3757 171.209 60.2775 171.309C59.1335 171.412 58.0791 171.231 57.1143 170.764C56.148 170.283 55.3621 169.585 54.7566 168.671C54.151 167.757 53.7958 166.72 53.6909 165.561C53.5888 164.432 53.7536 163.364 54.1852 162.356C54.6169 161.348 55.2655 160.528 56.131 159.897C57.0103 159.248 58.0144 158.873 59.1431 158.771C60.3786 158.659 61.4822 158.874 62.454 159.417C63.4258 159.959 64.1887 160.744 64.7429 161.77C65.3124 162.795 65.6169 163.952 65.6566 165.24L55.7498 166.136ZM59.317 160.692C58.2645 160.788 57.4019 161.196 56.7291 161.918C56.0702 162.624 55.7044 163.511 55.6319 164.578L63.5939 163.858C63.3434 162.789 62.8391 161.973 62.0808 161.411C61.3212 160.834 60.4 160.594 59.317 160.692ZM69.8431 166.107C70.2823 166.882 70.793 167.428 71.3753 167.744C71.9575 168.06 72.6299 168.184 73.3926 168.115C74.323 168.031 75.0414 167.812 75.5476 167.459C76.0539 167.105 76.2863 166.7 76.2449 166.242C76.2021 165.77 75.9853 165.412 75.5943 165.171C75.2173 164.913 74.5303 164.714 73.5334 164.573L72.7598 164.436C71.1861 164.209 70.0534 163.842 69.3617 163.336C68.67 162.83 68.2814 162.103 68.1959 161.158C68.1448 160.593 68.258 160.06 68.5356 159.558C68.827 159.04 69.2875 158.606 69.9171 158.257C70.5607 157.891 71.3553 157.666 72.301 157.58C73.4907 157.472 74.4994 157.658 75.327 158.137C76.1545 158.615 76.8572 159.328 77.435 160.276L75.8809 161.454C75.4125 160.697 74.8956 160.167 74.33 159.865C73.7796 159.561 73.1613 159.44 72.4749 159.502C71.5902 159.582 70.9696 159.777 70.6131 160.086C70.2553 160.379 70.0943 160.725 70.1302 161.121C70.1674 161.533 70.3579 161.854 70.7017 162.084C71.0455 162.315 71.6784 162.511 72.6004 162.674L73.372 162.789C74.9928 163.026 76.158 163.413 76.8678 163.949C77.5913 164.467 77.9952 165.192 78.0794 166.122C78.1318 166.702 77.9915 167.276 77.6585 167.844C77.3255 168.413 76.8081 168.898 76.1063 169.3C75.4045 169.702 74.5579 169.947 73.5665 170.037C72.3157 170.15 71.262 169.976 70.4053 169.516C69.5486 169.055 68.8057 168.323 68.1766 167.318L69.8431 166.107ZM81.8914 163.771C82.1433 164.855 82.6574 165.693 83.4336 166.284C84.2237 166.858 85.1603 167.097 86.2432 166.999C87.0211 166.928 87.7076 166.697 88.3026 166.305C88.9115 165.896 89.3852 165.353 89.7238 164.677L91.2584 165.576C90.824 166.553 90.1796 167.334 89.3252 167.919C88.4861 168.503 87.5174 168.844 86.4192 168.943C85.2752 169.047 84.2208 168.865 83.2559 168.399C82.2897 167.918 81.5038 167.22 80.8982 166.306C80.2927 165.392 79.9375 164.355 79.8326 163.196C79.7305 162.067 79.8952 160.999 80.3269 159.991C80.7585 158.983 81.4071 158.163 82.2726 157.531C83.152 156.883 84.156 156.507 85.2848 156.405C86.5203 156.294 87.6239 156.509 88.5956 157.051C89.5674 157.594 90.3304 158.378 90.8846 159.405C91.454 160.43 91.7586 161.586 91.7983 162.874L81.8914 163.771ZM85.4586 158.327C84.4062 158.422 83.5436 158.831 82.8708 159.553C82.2118 160.259 81.8461 161.145 81.7735 162.213L89.7356 161.492C89.4851 160.423 88.9807 159.608 88.2225 159.046C87.4629 158.469 86.5416 158.229 85.4586 158.327ZM99.5575 155.045C102.745 154.756 104.506 156.45 104.838 160.126L105.449 166.875L103.504 167.051L102.893 160.302C102.787 159.127 102.433 158.268 101.83 157.722C101.227 157.177 100.437 156.949 99.461 157.037C98.3628 157.137 97.4828 157.608 96.821 158.452C96.1579 159.281 95.8939 160.443 96.0292 161.938L96.5488 167.681L94.5811 167.859L93.5005 155.916L95.4682 155.738L95.1963 159.361L95.6538 159.319C95.9378 156.679 97.2391 155.254 99.5575 155.045ZM111.623 160.112C111.751 161.53 111.909 162.508 112.096 163.045C112.297 163.565 112.641 163.88 113.127 163.989C113.629 164.098 114.513 164.095 115.779 163.98L115.955 165.925C114.186 166.085 112.889 166.025 112.064 165.746C111.239 165.467 110.675 164.934 110.373 164.146C110.072 163.359 109.84 162.072 109.678 160.288L109.331 156.444L106.837 156.67L106.661 154.725L109.155 154.499L108.745 149.969L110.689 149.793L111.099 154.323L114.829 153.986L115.005 155.931L111.275 156.268L111.623 160.112ZM121.579 153.144C123.318 152.987 124.688 153.34 125.689 154.203C126.688 155.05 127.257 156.237 127.395 157.762L128.034 164.832L126.135 165.004L126.149 161.335L125.76 161.37C125.545 162.727 125.085 163.769 124.382 164.493C123.679 165.218 122.778 165.63 121.68 165.73C120.2 165.864 119.079 165.627 118.317 165.019C117.555 164.412 117.127 163.589 117.033 162.552C116.902 161.103 117.357 160.016 118.398 159.291C119.44 158.566 121.021 158.108 123.141 157.916L125.521 157.701C125.392 156.79 124.985 156.112 124.299 155.666C123.611 155.206 122.764 155.021 121.757 155.112C120.949 155.185 120.302 155.428 119.816 155.841C119.331 156.254 118.907 156.839 118.545 157.594L116.838 156.572C117.364 155.587 117.984 154.8 118.7 154.212C119.43 153.608 120.389 153.252 121.579 153.144ZM121.639 163.75C122.829 163.642 123.748 163.182 124.398 162.37C125.045 161.542 125.422 160.517 125.526 159.292L123.284 159.495C121.743 159.634 120.616 159.921 119.902 160.355C119.186 160.773 118.864 161.379 118.936 162.172C118.986 162.721 119.239 163.144 119.697 163.441C120.153 163.723 120.8 163.826 121.639 163.75ZM133.296 158.151C133.424 159.569 133.582 160.547 133.769 161.084C133.97 161.604 134.314 161.919 134.8 162.028C135.302 162.137 136.186 162.134 137.452 162.019L137.628 163.964C135.859 164.124 134.562 164.065 133.737 163.785C132.912 163.506 132.348 162.973 132.046 162.185C131.745 161.398 131.513 160.111 131.351 158.327L131.004 154.483L128.51 154.709L128.334 152.764L130.828 152.538L130.418 148.008L132.362 147.832L132.772 152.362L136.502 152.025L136.678 153.97L132.948 154.307L133.296 158.151ZM140.681 149.709C140.3 149.744 139.968 149.651 139.687 149.43C139.419 149.193 139.269 148.891 139.236 148.525C139.203 148.159 139.297 147.843 139.519 147.577C139.755 147.294 140.064 147.135 140.445 147.101C140.796 147.069 141.105 147.172 141.372 147.409C141.654 147.63 141.811 147.923 141.844 148.289C141.877 148.655 141.776 148.98 141.54 149.262C141.318 149.529 141.032 149.677 140.681 149.709ZM139.871 151.72L141.816 151.544L142.896 163.487L140.952 163.663L139.871 151.72ZM151.504 163.054C150.36 163.158 149.305 162.969 148.339 162.487C147.388 162.004 146.61 161.306 146.004 160.392C145.412 159.461 145.064 158.416 144.959 157.257C144.856 156.113 145.012 155.038 145.428 154.031C145.86 153.024 146.501 152.204 147.351 151.574C148.215 150.927 149.22 150.551 150.363 150.448C151.492 150.346 152.532 150.536 153.483 151.019C154.448 151.485 155.226 152.176 155.816 153.092C156.406 154.007 156.753 155.037 156.857 156.181C156.963 157.355 156.808 158.446 156.391 159.452C155.975 160.459 155.335 161.285 154.471 161.933C153.622 162.578 152.633 162.952 151.504 163.054ZM151.328 161.11C152.091 161.041 152.753 160.796 153.315 160.376C153.892 159.955 154.318 159.401 154.595 158.715C154.885 158.012 154.991 157.234 154.914 156.379C154.837 155.525 154.593 154.786 154.183 154.162C153.788 153.537 153.269 153.068 152.625 152.757C151.997 152.445 151.302 152.324 150.539 152.393C149.762 152.463 149.084 152.709 148.507 153.13C147.945 153.55 147.519 154.104 147.227 154.791C146.951 155.478 146.852 156.248 146.929 157.102C147.006 157.956 147.243 158.704 147.639 159.344C148.049 159.969 148.568 160.437 149.196 160.749C149.84 161.06 150.55 161.18 151.328 161.11ZM164.666 149.154C167.854 148.865 169.614 150.559 169.947 154.235L170.557 160.985L168.613 161.16L168.002 154.411C167.896 153.237 167.541 152.377 166.938 151.832C166.335 151.286 165.546 151.058 164.569 151.146C163.471 151.246 162.591 151.717 161.929 152.562C161.266 153.39 161.002 154.552 161.138 156.047L161.657 161.79L159.69 161.968L158.609 150.025L160.577 149.847L160.305 153.47L160.762 153.428C161.046 150.788 162.347 149.364 164.666 149.154Z" fill="#1BB6FF"/>
<rect x="98.8567" y="73.8799" width="194.432" height="56.7162" rx="28.3581" transform="rotate(-6.99507 98.8567 73.8799)" fill="white"/>
<path d="M132.84 88.8321L138.827 103.674L141.3 87.7941L143.329 87.5451L149.316 102.387L151.788 86.5072L153.818 86.2582L150.72 105.154L148.554 105.42L142.674 90.8889L140.231 106.441L138.065 106.707L130.811 89.0811L132.84 88.8321ZM157.422 99.0782C157.708 100.154 158.249 100.975 159.044 101.541C159.852 102.09 160.795 102.298 161.875 102.166C162.65 102.071 163.329 101.818 163.911 101.407C164.506 100.979 164.963 100.421 165.279 99.7343L166.842 100.584C166.439 101.575 165.82 102.376 164.984 102.988C164.164 103.598 163.207 103.97 162.112 104.104C160.972 104.244 159.913 104.096 158.933 103.661C157.952 103.21 157.145 102.538 156.51 101.643C155.876 100.749 155.488 99.7244 155.346 98.5691C155.208 97.4442 155.339 96.3712 155.738 95.3501C156.137 94.329 156.76 93.4889 157.604 92.8297C158.463 92.1535 159.454 91.7464 160.579 91.6084C161.811 91.4573 162.92 91.6374 163.909 92.1488C164.898 92.6601 165.685 93.4199 166.272 94.428C166.874 95.4343 167.215 96.5805 167.295 97.8668L157.422 99.0782ZM160.814 93.5237C159.765 93.6524 158.916 94.0884 158.267 94.8316C157.631 95.5577 157.293 96.4554 157.255 97.5248L165.19 96.5512C164.905 95.4906 164.375 94.6915 163.6 94.1541C162.822 93.6014 161.894 93.3913 160.814 93.5237ZM175.608 89.7644C176.642 89.6376 177.611 89.8041 178.516 90.2639C179.421 90.7238 180.169 91.4113 180.76 92.3263C181.364 93.2243 181.736 94.251 181.878 95.4063C182.016 96.5312 181.9 97.5947 181.529 98.5969C181.173 99.5972 180.612 100.43 179.845 101.095C179.076 101.745 178.175 102.133 177.141 102.26C175.895 102.413 174.836 102.211 173.965 101.654C173.095 101.098 172.435 100.183 171.985 98.9115L171.529 98.9674L172.197 102.519L170.236 102.76L167.997 84.5184L169.958 84.2778L170.736 90.6167L170.945 94.2018L171.446 94.1403C171.601 92.8869 172.034 91.8848 172.744 91.1342C173.468 90.3665 174.422 89.9099 175.608 89.7644ZM176.262 100.377C177.037 100.282 177.723 100.021 178.318 99.5926C178.912 99.1495 179.352 98.5863 179.638 97.903C179.923 97.2046 180.014 96.4374 179.912 95.6013C179.809 94.7652 179.528 94.0513 179.07 93.4594C178.625 92.8506 178.062 92.4105 177.381 92.1392C176.713 91.8508 175.991 91.7542 175.216 91.8493C174.501 91.937 173.863 92.2081 173.302 92.6628C172.754 93.1003 172.346 93.675 172.078 94.3868C171.811 95.0985 171.728 95.8724 171.831 96.7085C171.92 97.4382 172.187 98.0998 172.63 98.6935C173.073 99.2872 173.614 99.7377 174.254 100.045C174.909 100.35 175.578 100.461 176.262 100.377ZM194.507 81.2657C197.775 80.8647 200.246 81.3794 201.918 82.8098C203.588 84.2251 204.596 86.3388 204.941 89.151C205.29 91.9937 204.829 94.3339 203.557 96.1718C202.284 97.9945 200.014 99.1063 196.745 99.5073L190.566 100.266L188.328 82.0239L190.266 81.7861L190.269 81.8089L194.507 81.2657ZM196.507 97.5692C199.029 97.2443 200.812 96.3698 201.856 94.9455C202.9 93.5213 203.283 91.669 203.003 89.3888C202.734 87.1999 201.915 85.5491 200.544 84.4366C199.186 83.307 197.253 82.8961 194.745 83.2039L190.504 83.7243L192.269 98.1123L196.507 97.5692ZM209.706 92.6631C209.993 93.7389 210.533 94.5598 211.328 95.1258C212.136 95.6747 213.08 95.883 214.159 95.7506C214.934 95.6554 215.613 95.4024 216.195 94.9915C216.791 94.5636 217.247 94.0061 217.564 93.3192L219.126 94.169C218.723 95.1597 218.104 95.9609 217.269 96.5726C216.448 97.1824 215.491 97.5544 214.397 97.6887C213.257 97.8286 212.197 97.6809 211.218 97.2456C210.237 96.795 209.429 96.1226 208.794 95.2283C208.16 94.3341 207.772 93.3093 207.63 92.154C207.492 91.0291 207.623 89.9561 208.022 88.935C208.422 87.9139 209.044 87.0738 209.889 86.4146C210.747 85.7384 211.739 85.3313 212.863 85.1932C214.095 85.0422 215.205 85.2223 216.193 85.7336C217.182 86.245 217.969 87.0047 218.556 88.0129C219.158 89.0191 219.499 90.1654 219.58 91.4516L209.706 92.6631ZM213.098 87.1086C212.05 87.2373 211.2 87.6732 210.551 88.4164C209.915 89.1425 209.578 90.0403 209.539 91.1097L217.474 90.1361C217.19 89.0755 216.66 88.2764 215.884 87.739C215.106 87.1863 214.178 86.9762 213.098 87.1086ZM223.792 92.1847C224.255 92.9456 224.783 93.4749 225.375 93.7726C225.967 94.0703 226.643 94.1725 227.403 94.0792C228.331 93.9654 229.042 93.7239 229.536 93.3546C230.031 92.9853 230.251 92.5726 230.195 92.1166C230.137 91.6453 229.909 91.2953 229.51 91.0664C229.125 90.8205 228.432 90.6432 227.431 90.5345L226.654 90.4217C225.074 90.2452 223.93 89.9149 223.222 89.4308C222.515 88.9467 222.103 88.2334 221.988 87.2909C221.919 86.7285 222.015 86.192 222.276 85.6816C222.551 85.1542 222.997 84.7059 223.616 84.3369C224.247 83.9508 225.034 83.6999 225.977 83.5843C227.162 83.4388 228.177 83.5921 229.019 84.0442C229.861 84.4964 230.586 85.1866 231.194 86.115L229.678 87.3426C229.186 86.6006 228.652 86.0874 228.077 85.8031C227.518 85.5168 226.896 85.4157 226.212 85.4996C225.33 85.6078 224.716 85.822 224.37 86.1423C224.021 86.4473 223.871 86.7975 223.92 87.1927C223.97 87.6032 224.171 87.918 224.522 88.1373C224.873 88.3565 225.512 88.5327 226.438 88.6659L227.213 88.756C228.841 88.942 230.018 89.2914 230.744 89.8041C231.484 90.2996 231.911 91.0111 232.024 91.9383C232.095 92.516 231.973 93.0942 231.659 93.6728C231.344 94.2515 230.842 94.7528 230.153 95.1768C229.465 95.6007 228.626 95.8733 227.638 95.9946C226.392 96.1475 225.333 96.0074 224.462 95.5742C223.591 95.141 222.825 94.4326 222.165 93.449L223.792 92.1847ZM234.483 80.8509C234.103 80.8976 233.769 80.8151 233.481 80.6036C233.206 80.375 233.046 80.0783 233.001 79.7135C232.957 79.3487 233.041 79.0297 233.254 78.7567C233.481 78.4665 233.784 78.2981 234.164 78.2515C234.514 78.2086 234.826 78.3015 235.101 78.53C235.389 78.7416 235.556 79.0297 235.601 79.3946C235.645 79.7594 235.554 80.0869 235.328 80.377C235.114 80.6501 234.833 80.808 234.483 80.8509ZM233.738 82.8866L235.676 82.6488L237.136 94.5515L235.198 94.7893L233.738 82.8866ZM246.558 98.0246C245.205 98.1906 244.058 98.092 243.119 97.729C242.195 97.364 241.398 96.7828 240.729 95.9854L242.166 94.675C242.677 95.3221 243.256 95.7679 243.904 96.0125C244.566 96.2553 245.376 96.3179 246.334 96.2004C247.687 96.0344 248.702 95.5086 249.38 94.623C250.074 93.7356 250.411 92.645 250.391 91.3513L250.37 89.2939L249.891 89.3527C249.629 91.9926 248.236 93.4673 245.712 93.777C244.709 93.9001 243.748 93.7402 242.83 93.2974C241.925 92.8375 241.171 92.1662 240.569 91.2834C239.965 90.3854 239.593 89.3664 239.453 88.2263C239.313 87.0862 239.421 86.016 239.777 85.0157C240.148 84.0135 240.717 83.1875 241.486 82.5377C242.255 81.8878 243.157 81.4995 244.19 81.3727C245.361 81.229 246.381 81.4356 247.252 81.9922C248.136 82.5318 248.813 83.3977 249.284 84.5899L249.785 84.5283L249.121 80.9992L251.082 80.7586L252.106 89.1041C252.425 91.7035 252.107 93.7715 251.154 95.3081C250.203 96.8598 248.671 97.7653 246.558 98.0246ZM246.119 91.806C246.787 91.724 247.398 91.4794 247.95 91.0722C248.517 90.6632 248.942 90.1094 249.227 89.411C249.527 88.7107 249.621 87.9045 249.509 86.9925C249.347 85.6699 248.856 84.6886 248.037 84.0485C247.231 83.3913 246.243 83.1345 245.072 83.2781C244.297 83.3732 243.612 83.6348 243.016 84.0627C242.42 84.4907 241.972 85.0472 241.67 85.7323C241.384 86.4155 241.291 87.1676 241.391 87.9885C241.496 88.8397 241.771 89.5698 242.216 90.1787C242.676 90.7857 243.248 91.2325 243.931 91.519C244.614 91.8055 245.343 91.9012 246.119 91.806ZM259.619 79.3871C262.796 78.9973 264.609 80.6341 265.058 84.2976L265.884 91.0242L263.946 91.262L263.12 84.5354C262.977 83.3649 262.595 82.5168 261.975 81.9911C261.355 81.4654 260.558 81.2623 259.586 81.3816C258.491 81.5159 257.627 82.0155 256.992 82.8803C256.356 83.7298 256.129 84.8995 256.312 86.3892L257.014 92.1125L255.053 92.3532L253.592 80.4505L255.553 80.2099L255.397 83.8398L255.853 83.7838C256.053 81.1362 257.308 79.6706 259.619 79.3871Z" fill="#1BB6FF"/>
<rect x="-7" y="104.485" width="125.432" height="56.7162" rx="28.3581" transform="rotate(-39.9157 -7 104.485)" fill="white"/>
<path d="M42.9441 95.0863C43.691 95.9791 44.0948 96.9392 44.1556 97.9666C44.2183 98.9724 43.9869 99.9847 43.4614 101.003L50.9074 104.748L49.2687 106.119L42.3703 102.635C41.8714 103.232 41.3166 103.786 40.7057 104.297L36.9703 107.422L41.3925 112.708L39.8772 113.976L28.0845 99.8799L33.3353 95.4872C35.1326 93.9836 36.834 93.1293 38.4396 92.9242C40.0471 92.6976 41.5486 93.4183 42.9441 95.0863ZM39.4675 102.817C40.9828 101.549 41.8778 100.411 42.1523 99.4029C42.417 98.3827 42.1367 97.3792 41.3112 96.3925C39.6504 94.4073 37.4045 94.5989 34.5735 96.9673L30.8381 100.092L35.7321 105.942L39.4675 102.817ZM50.5907 98.214C51.4158 98.9614 52.3156 99.3568 53.2903 99.4C54.2669 99.4217 55.1722 99.0837 56.0062 98.3859C56.6053 97.8847 57.0375 97.3035 57.3029 96.6421C57.5703 95.9592 57.6503 95.2433 57.5429 94.4944L59.3163 94.3587C59.5164 95.4093 59.4321 96.4184 59.0633 97.3859C58.7063 98.3435 58.1049 99.1761 57.2591 99.8836C56.3781 100.621 55.4084 101.073 54.3498 101.239C53.2814 101.394 52.2379 101.269 51.2194 100.863C50.2009 100.457 49.3182 99.8077 48.5713 98.915C47.8441 98.0457 47.3707 97.074 47.1509 95.9998C46.9312 94.9256 46.9968 93.8823 47.3479 92.8698C47.7008 91.8357 48.3119 90.955 49.1812 90.2278C50.1326 89.4318 51.1622 88.9798 52.27 88.8718C53.3777 88.7638 54.4517 88.9735 55.492 89.5009C56.5441 90.0186 57.4535 90.7953 58.2202 91.8312L50.5907 98.214ZM50.4194 91.7079C49.6089 92.386 49.133 93.2134 48.9917 94.1903C48.8524 95.1455 49.0571 96.0824 49.606 97.0011L55.7378 91.8712C54.9226 91.1355 54.0433 90.7528 53.1001 90.7233C52.147 90.682 51.2534 91.0102 50.4194 91.7079ZM59.6286 81.5175C60.9678 80.3972 62.2944 79.9064 63.6084 80.045C64.9127 80.1719 66.0562 80.8227 67.0389 81.9974L71.5938 87.442L70.1314 88.6655L68.0519 85.6428L67.7524 85.8934C68.3489 87.1315 68.5648 88.2489 68.4 89.2453C68.2353 90.2418 67.73 91.0938 66.8842 91.8014C65.7448 92.7546 64.6887 93.1988 63.716 93.134C62.7432 93.0692 61.9227 92.6374 61.2545 91.8387C60.3209 90.7227 60.0755 89.5702 60.5184 88.381C60.9612 87.1918 61.999 85.9142 63.6318 84.5483L65.4643 83.0152C64.8394 82.3399 64.1182 82.0148 63.3005 82.0399C62.473 82.0532 61.6716 82.3842 60.8963 83.0328C60.2738 83.5537 59.8807 84.1221 59.7172 84.7382C59.5536 85.3542 59.5384 86.0759 59.6713 86.9031L57.6861 87.0363C57.5566 85.9267 57.6184 84.9265 57.8716 84.0358C58.1267 83.1234 58.7124 82.284 59.6286 81.5175ZM65.7222 90.1976C66.6385 89.4311 67.1319 88.5291 67.2024 87.4916C67.2632 86.4424 66.9876 85.385 66.3757 84.3194L64.6489 85.764C63.4625 86.7566 62.6994 87.6346 62.3597 88.3981C62.0101 89.1498 62.0909 89.831 62.6019 90.4419C62.9557 90.8647 63.4051 91.0678 63.9502 91.0511C64.4855 91.0226 65.0762 90.7381 65.7222 90.1976ZM80.3098 76.7956C80.5 77.8346 80.4157 78.8436 80.0568 79.8228C79.6998 80.7804 79.069 81.6376 78.1645 82.3943C77.2835 83.1313 76.3196 83.5783 75.2728 83.7353C74.2161 83.8804 73.1785 83.7501 72.16 83.3441C71.1532 82.9284 70.2764 82.2742 69.5296 81.3814C68.7925 80.5004 68.3132 79.5336 68.0915 78.481C67.8718 77.4068 67.9316 76.3684 68.2709 75.3657C68.6003 74.3513 69.2055 73.4756 70.0865 72.7385C71.0263 71.9523 72.0303 71.4817 73.0987 71.3267C74.1691 71.1502 75.2282 71.2824 76.2762 71.7236L75.818 73.5746C74.146 72.9366 72.6757 73.1483 71.4071 74.2096C70.808 74.7108 70.3915 75.2989 70.1575 75.9739C69.9136 76.6372 69.8679 77.3344 70.0203 78.0655C70.1746 78.7751 70.522 79.4529 71.0625 80.099C71.9077 81.1092 72.8735 81.6789 73.9601 81.8082C75.0369 81.9258 76.0334 81.6013 76.9497 80.8348C77.5487 80.3336 77.9702 79.7513 78.214 79.0881C78.4579 78.4248 78.5212 77.7129 78.4041 76.9523L80.3098 76.7956ZM82.7609 70.0426C83.6748 71.135 84.3615 71.8485 84.821 72.1829C85.2824 72.4958 85.7444 72.5586 86.2068 72.3714C86.681 72.1744 87.4055 71.6681 88.3805 70.8524L89.6335 72.3501C88.2709 73.4901 87.1711 74.1805 86.3343 74.4213C85.4974 74.6622 84.7305 74.545 84.0334 74.0699C83.3364 73.5947 82.413 72.6699 81.2632 71.2956L78.7867 68.3354L76.8661 69.9421L75.6132 68.4444L77.5337 66.8377L74.6151 63.3489L76.1128 62.0959L79.0314 65.5847L81.9035 63.182L83.1565 64.6797L80.2844 67.0824L82.7609 70.0426Z" fill="#1BB6FF"/>
<rect x="105" y="16.3828" width="134.432" height="56.7163" rx="28.3581" transform="rotate(-7 105 16.3828)" fill="white"/>
<path d="M154.809 29.3898L157.049 47.6312L155.042 47.8775L153.36 34.1737L149.273 48.5859L147.198 48.8406L139.505 35.7591L141.202 49.577L139.195 49.8233L136.955 31.5819L139.03 31.3272L147.931 46.3205L152.734 29.6445L154.809 29.3898ZM165.318 46.963C164.178 47.103 163.117 46.9478 162.136 46.4973C161.17 46.045 160.37 45.3717 159.736 44.4775C159.115 43.5662 158.733 42.533 158.591 41.3777C158.451 40.2376 158.573 39.1579 158.957 38.1386C159.357 37.1175 159.971 36.2783 160.801 35.6209C161.644 34.9465 162.635 34.5392 163.775 34.3993C164.9 34.2611 165.946 34.4182 166.912 34.8706C167.891 35.3058 168.69 35.9715 169.309 36.8676C169.929 37.7636 170.308 38.7817 170.448 39.9218C170.592 41.0923 170.472 42.1872 170.088 43.2065C169.704 44.2257 169.09 45.0726 168.247 45.747C167.419 46.4196 166.443 46.8249 165.318 46.963ZM165.08 45.0249C165.84 44.9316 166.494 44.6661 167.042 44.2285C167.605 43.789 168.014 43.2219 168.268 42.5272C168.536 41.8154 168.617 41.0339 168.513 40.1826C168.408 39.3313 168.141 38.6003 167.711 37.9896C167.296 37.377 166.763 36.9256 166.11 36.6355C165.472 36.3434 164.773 36.2441 164.013 36.3374C163.238 36.4326 162.569 36.6999 162.006 37.1394C161.457 37.577 161.049 38.1441 160.779 38.8407C160.525 39.5354 160.45 40.3084 160.555 41.1597C160.659 42.011 160.92 42.7505 161.337 43.3783C161.766 43.989 162.3 44.4404 162.938 44.7324C163.591 45.0226 164.305 45.1201 165.08 45.0249ZM175.999 39.0782C176.173 40.4919 176.362 41.464 176.566 41.9944C176.783 42.5078 177.137 42.8116 177.627 42.9057C178.132 42.998 179.015 42.9667 180.277 42.8118L180.515 44.7499C178.751 44.9664 177.453 44.9484 176.62 44.6958C175.786 44.4433 175.206 43.9282 174.879 43.1505C174.552 42.3728 174.279 41.0947 174.061 39.3162L173.591 35.4855L171.105 35.7907L170.867 33.8525L173.353 33.5473L172.798 29.0326L174.737 28.7946L175.291 33.3094L179.008 32.853L179.246 34.7912L175.529 35.2475L175.999 39.0782ZM183.111 30.405C182.731 30.4517 182.396 30.3692 182.108 30.1578C181.833 29.9292 181.673 29.6325 181.629 29.2677C181.584 28.9028 181.668 28.5839 181.881 28.3108C182.108 28.0207 182.411 27.8523 182.792 27.8056C183.141 27.7627 183.453 27.8555 183.728 28.084C184.017 28.2955 184.183 28.5837 184.228 28.9485C184.273 29.3133 184.182 29.6408 183.955 29.931C183.742 30.2041 183.46 30.3621 183.111 30.405ZM182.365 32.4407L184.304 32.2028L185.765 44.1053L183.827 44.3432L182.365 32.4407ZM194.355 43.3978C193.215 43.5378 192.154 43.3825 191.173 42.9321C190.207 42.4798 189.407 41.8065 188.772 40.9123C188.151 40.001 187.77 38.9677 187.628 37.8124C187.488 36.6723 187.61 35.5927 187.994 34.5734C188.393 33.5523 189.008 32.713 189.837 32.0556C190.68 31.3812 191.672 30.974 192.812 30.834C193.937 30.6959 194.982 30.853 195.948 31.3053C196.927 31.7406 197.727 32.4062 198.346 33.3023C198.965 34.1984 199.345 35.2165 199.485 36.3566C199.628 37.5271 199.508 38.6219 199.124 39.6412C198.74 40.6605 198.127 41.5073 197.284 42.1818C196.456 42.8543 195.479 43.2597 194.355 43.3978ZM194.117 41.4596C194.877 41.3663 195.531 41.1008 196.079 40.6632C196.642 40.2237 197.051 39.6566 197.305 38.9619C197.572 38.2501 197.654 37.4686 197.549 36.6173C197.445 35.7661 197.178 35.0351 196.748 34.4244C196.333 33.8118 195.799 33.3604 195.146 33.0702C194.509 32.7782 193.81 32.6788 193.05 32.7722C192.275 32.8674 191.605 33.1347 191.042 33.5742C190.494 34.0118 190.085 34.5789 189.816 35.2755C189.562 35.9702 189.487 36.7432 189.592 37.5944C189.696 38.4457 189.957 39.1852 190.373 39.813C190.803 40.4238 191.337 40.8751 191.974 41.1672C192.627 41.4573 193.341 41.5548 194.117 41.4596ZM207.066 29.0839C210.243 28.6938 212.056 30.3305 212.506 33.994L213.332 40.7205L211.394 40.9585L210.568 34.2319C210.424 33.0614 210.042 32.2134 209.422 31.6877C208.802 31.1621 208.006 30.959 207.033 31.0784C205.938 31.2128 205.074 31.7124 204.439 32.5773C203.803 33.4269 203.576 34.5966 203.759 36.0863L204.462 41.8096L202.501 42.0503L201.04 30.1478L203.001 29.907L202.845 33.5369L203.301 33.4809C203.5 30.8333 204.755 29.3676 207.066 29.0839Z" fill="#1BB6FF"/>
</svg>
