<svg width="845" height="325" viewBox="0 0 845 325" fill="none" xmlns="http://www.w3.org/2000/svg">
<rect y="242.138" width="180.596" height="83.7982" rx="41.8991" fill="white"/>
<path d="M47.4204 270.146V285.074C47.4204 287.243 47.6373 289.023 48.071 290.415C48.5275 291.808 49.2807 292.858 50.3307 293.565C51.4035 294.273 52.8758 294.627 54.7475 294.627C57.3496 294.65 59.1529 293.885 60.1572 292.333C61.1843 290.758 61.6979 288.338 61.6979 285.074V270.146H64.6082V285.074C64.6082 287.859 64.3115 290.153 63.718 291.956C63.1245 293.759 62.1088 295.14 60.6708 296.099C59.2327 297.058 57.2583 297.537 54.7475 297.537C52.1225 297.537 50.0568 297.058 48.5503 296.099C47.0666 295.14 46.0166 293.759 45.4004 291.956C44.8069 290.153 44.5101 287.859 44.5101 285.074V270.146H47.4204ZM71.9626 270.146V297.537H69.0523V270.146H71.9626ZM86.8416 273.57L78.4189 300.619H75.3717L83.7944 273.57H86.8416ZM93.1611 270.146V285.074C93.1611 287.243 93.3779 289.023 93.8116 290.415C94.2681 291.808 95.0214 292.858 96.0713 293.565C97.1442 294.273 98.6164 294.627 100.488 294.627C103.09 294.65 104.893 293.885 105.898 292.333C106.925 290.758 107.439 288.338 107.439 285.074V270.146H110.349V285.074C110.349 287.859 110.052 290.153 109.459 291.956C108.865 293.759 107.849 295.14 106.411 296.099C104.973 297.058 102.999 297.537 100.488 297.537C97.8632 297.537 95.7974 297.058 94.2909 296.099C92.8073 295.14 91.7573 293.759 91.141 291.956C90.5475 290.153 90.2508 287.859 90.2508 285.074V270.146H93.1611ZM136.046 270.146L126.63 283.842L136.046 297.537H132.588L124.918 286.341L117.214 297.537H113.756L123.172 283.842L113.756 270.146H117.214L124.918 281.342L132.588 270.146H136.046Z" fill="#1BB6FF"/>
<rect x="387.324" y="242.138" width="184.596" height="83.7982" rx="41.8991" fill="white"/>
<path d="M442.209 270.146C444.902 270.123 446.922 270.683 448.269 271.824C449.616 272.965 450.289 274.495 450.289 276.412C450.289 277.781 449.855 278.968 448.988 279.973C448.121 280.954 447.025 281.536 445.701 281.719C448.052 281.924 449.947 282.655 451.385 283.91C452.823 285.143 453.542 286.832 453.542 288.977C453.542 291.854 452.492 293.999 450.392 295.414C448.315 296.83 445.587 297.537 442.209 297.537H431.834V270.146H442.209ZM442.209 280.384C443.921 280.384 445.199 280.053 446.044 279.391C446.911 278.706 447.345 277.793 447.345 276.652C447.345 275.556 446.911 274.689 446.044 274.049C445.199 273.41 443.921 273.091 442.209 273.091H434.779V280.384H442.209ZM442.209 294.593C445.13 294.593 447.23 294.056 448.509 292.983C449.787 291.888 450.426 290.507 450.426 288.841C450.426 287.243 449.764 285.919 448.44 284.869C447.116 283.819 445.039 283.294 442.209 283.294H434.779V294.593H442.209ZM459.718 285.006C460.106 283.157 460.825 281.81 461.875 280.966C462.947 280.098 464.397 279.665 466.223 279.665V282.746C466.04 282.723 465.766 282.712 465.401 282.712C463.758 282.712 462.434 283.225 461.429 284.253C460.425 285.28 459.923 286.843 459.923 288.943V297.537H456.978V279.665H459.923L459.033 285.006H459.718ZM476.626 279.322C479.228 279.322 481.214 280.03 482.584 281.445C483.953 282.837 484.638 284.675 484.638 286.957V297.537H481.796L482.31 292.093H481.728C481.225 294.079 480.404 295.563 479.262 296.544C478.121 297.526 476.729 298.016 475.085 298.016C472.871 298.016 471.239 297.514 470.189 296.51C469.139 295.506 468.614 294.227 468.614 292.675C468.614 290.507 469.436 288.955 471.079 288.019C472.723 287.083 475.131 286.615 478.304 286.615H481.865C481.796 285.245 481.283 284.184 480.324 283.431C479.365 282.655 478.133 282.267 476.626 282.267C475.416 282.267 474.423 282.541 473.647 283.088C472.871 283.636 472.164 284.447 471.525 285.519L469.128 283.773C470.041 282.381 471.068 281.297 472.209 280.521C473.373 279.722 474.846 279.322 476.626 279.322ZM475.291 295.072C477.071 295.072 478.498 294.513 479.571 293.394C480.643 292.253 481.34 290.781 481.659 288.977H478.304C475.998 288.977 474.286 289.251 473.168 289.799C472.05 290.324 471.49 291.18 471.49 292.367C471.49 293.189 471.81 293.851 472.449 294.353C473.088 294.832 474.035 295.072 475.291 295.072ZM498.218 279.185C502.989 279.185 505.374 281.936 505.374 287.437V297.537H502.464V287.437C502.464 285.679 502.053 284.355 501.231 283.465C500.409 282.575 499.268 282.13 497.807 282.13C496.164 282.13 494.794 282.712 493.699 283.876C492.603 285.017 492.055 286.706 492.055 288.943V297.537H489.111V279.665H492.055L491.165 285.006H491.85C492.626 281.125 494.749 279.185 498.218 279.185ZM527.362 270.146V297.537H524.417L524.76 292.162H524.075C523.641 294.125 522.831 295.597 521.644 296.578C520.457 297.56 518.928 298.051 517.056 298.051C515.504 298.051 514.1 297.64 512.845 296.818C511.589 295.974 510.596 294.844 509.866 293.428C509.158 292.013 508.804 290.461 508.804 288.772C508.804 287.037 509.158 285.451 509.866 284.013C510.596 282.552 511.589 281.399 512.845 280.555C514.1 279.71 515.504 279.288 517.056 279.288C518.859 279.288 520.343 279.79 521.507 280.794C522.694 281.776 523.527 283.18 524.006 285.006H524.76L524.417 279.665V270.146H527.362ZM518.015 295.106C519.042 295.106 520 294.821 520.891 294.25C521.804 293.68 522.534 292.915 523.082 291.956C523.63 290.998 523.904 289.97 523.904 288.875C523.904 287.619 523.641 286.489 523.116 285.485C522.591 284.481 521.872 283.705 520.959 283.157C520.069 282.586 519.087 282.301 518.015 282.301C516.851 282.301 515.789 282.575 514.83 283.123C513.895 283.648 513.141 284.401 512.571 285.382C512.023 286.341 511.749 287.448 511.749 288.704C511.749 289.959 512.023 291.077 512.571 292.059C513.119 293.018 513.872 293.771 514.83 294.319C515.789 294.844 516.851 295.106 518.015 295.106Z" fill="#1BB6FF"/>
<rect x="502.88" y="75.2246" width="299.596" height="83.7982" rx="41.8991" fill="white"/>
<path d="M550.334 130.624H547.39V103.233H557.593C560.857 103.233 563.562 103.895 565.708 105.219C567.876 106.543 568.96 108.791 568.96 111.964C568.96 113.95 568.424 115.57 567.351 116.826C566.278 118.081 564.886 118.983 563.174 119.531C561.462 120.079 559.602 120.352 557.593 120.352H550.334V130.624ZM557.593 117.476C563.094 117.476 565.845 115.616 565.845 111.896C565.845 109.955 565.08 108.506 563.551 107.547C562.021 106.589 560.035 106.109 557.593 106.109H550.334V117.476H557.593ZM575.139 118.093C575.527 116.244 576.246 114.897 577.296 114.053C578.369 113.185 579.819 112.751 581.645 112.751V115.833C581.462 115.81 581.188 115.799 580.823 115.799C579.179 115.799 577.855 116.312 576.851 117.339C575.847 118.367 575.345 119.93 575.345 122.03V130.624H572.4V112.751H575.345L574.454 118.093H575.139ZM586.68 122.852C586.909 124.495 587.559 125.808 588.632 126.789C589.728 127.748 591.086 128.227 592.706 128.227C593.87 128.227 594.92 127.976 595.856 127.474C596.815 126.949 597.591 126.207 598.184 125.249L600.342 126.789C599.565 128.182 598.504 129.254 597.157 130.008C595.833 130.761 594.35 131.138 592.706 131.138C590.994 131.138 589.454 130.727 588.084 129.905C586.715 129.06 585.642 127.919 584.866 126.481C584.09 125.043 583.702 123.457 583.702 121.722C583.702 120.033 584.09 118.469 584.866 117.031C585.642 115.593 586.715 114.463 588.084 113.642C589.476 112.797 591.017 112.375 592.706 112.375C594.555 112.375 596.164 112.843 597.534 113.779C598.903 114.714 599.931 115.981 600.615 117.579C601.323 119.177 601.62 120.934 601.506 122.852H586.68ZM592.706 115.251C591.131 115.251 589.796 115.742 588.7 116.723C587.628 117.682 586.966 118.949 586.715 120.524H598.63C598.401 118.903 597.762 117.625 596.712 116.689C595.662 115.73 594.327 115.251 592.706 115.251ZM607.603 124.701C608.151 125.911 608.836 126.789 609.658 127.337C610.479 127.885 611.461 128.159 612.602 128.159C613.995 128.159 615.09 127.931 615.889 127.474C616.688 127.018 617.087 126.447 617.087 125.762C617.087 125.055 616.813 124.495 616.266 124.084C615.741 123.651 614.748 123.263 613.287 122.92L612.157 122.612C609.852 122.064 608.22 121.368 607.261 120.524C606.302 119.679 605.823 118.549 605.823 117.134C605.823 116.289 606.063 115.513 606.542 114.806C607.044 114.075 607.786 113.493 608.767 113.06C609.772 112.603 610.982 112.375 612.397 112.375C614.177 112.375 615.649 112.786 616.813 113.607C617.978 114.429 618.925 115.582 619.655 117.066L617.19 118.606C616.597 117.419 615.9 116.563 615.102 116.038C614.325 115.513 613.424 115.251 612.397 115.251C611.073 115.251 610.126 115.456 609.555 115.867C608.984 116.255 608.699 116.746 608.699 117.339C608.699 117.956 608.939 118.458 609.418 118.846C609.897 119.234 610.81 119.611 612.157 119.976L613.287 120.25C615.661 120.82 617.338 121.551 618.32 122.441C619.324 123.308 619.826 124.438 619.826 125.831C619.826 126.698 619.541 127.531 618.971 128.33C618.4 129.129 617.567 129.779 616.471 130.282C615.375 130.784 614.086 131.035 612.602 131.035C610.73 131.035 609.19 130.635 607.98 129.837C606.77 129.038 605.766 127.851 604.967 126.276L607.603 124.701ZM625.801 122.852C626.029 124.495 626.679 125.808 627.752 126.789C628.848 127.748 630.206 128.227 631.827 128.227C632.991 128.227 634.041 127.976 634.977 127.474C635.935 126.949 636.711 126.207 637.305 125.249L639.462 126.789C638.686 128.182 637.624 129.254 636.278 130.008C634.954 130.761 633.47 131.138 631.827 131.138C630.115 131.138 628.574 130.727 627.204 129.905C625.835 129.06 624.762 127.919 623.986 126.481C623.21 125.043 622.822 123.457 622.822 121.722C622.822 120.033 623.21 118.469 623.986 117.031C624.762 115.593 625.835 114.463 627.204 113.642C628.597 112.797 630.137 112.375 631.827 112.375C633.675 112.375 635.285 112.843 636.654 113.779C638.024 114.714 639.051 115.981 639.736 117.579C640.443 119.177 640.74 120.934 640.626 122.852H625.801ZM631.827 115.251C630.252 115.251 628.916 115.742 627.821 116.723C626.748 117.682 626.086 118.949 625.835 120.524H637.75C637.522 118.903 636.882 117.625 635.833 116.689C634.783 115.73 633.447 115.251 631.827 115.251ZM653.195 112.272C657.965 112.272 660.351 115.023 660.351 120.524V130.624H657.44V120.524C657.44 118.766 657.029 117.442 656.208 116.552C655.386 115.662 654.245 115.217 652.784 115.217C651.14 115.217 649.771 115.799 648.675 116.963C647.58 118.104 647.032 119.793 647.032 122.03V130.624H644.087V112.751H647.032L646.142 118.093H646.826C647.602 114.212 649.725 112.272 653.195 112.272ZM670.423 121.414C670.423 123.537 670.526 125.009 670.732 125.831C670.96 126.63 671.428 127.143 672.135 127.371C672.866 127.6 674.178 127.714 676.073 127.714V130.624C673.425 130.624 671.508 130.362 670.321 129.837C669.134 129.312 668.369 128.444 668.027 127.234C667.684 126.025 667.513 124.084 667.513 121.414V115.662H663.781V112.751H667.513V105.972H670.423V112.751H676.004V115.662H670.423V121.414ZM686.137 112.409C688.739 112.409 690.725 113.117 692.095 114.532C693.464 115.924 694.149 117.762 694.149 120.044V130.624H691.307L691.821 125.18H691.239C690.736 127.166 689.915 128.65 688.773 129.631C687.632 130.613 686.24 131.103 684.596 131.103C682.382 131.103 680.75 130.601 679.7 129.597C678.65 128.593 678.125 127.314 678.125 125.762C678.125 123.594 678.947 122.042 680.59 121.106C682.234 120.17 684.642 119.702 687.815 119.702H691.376C691.307 118.332 690.793 117.271 689.835 116.518C688.876 115.742 687.644 115.354 686.137 115.354C684.927 115.354 683.934 115.628 683.158 116.175C682.382 116.723 681.675 117.533 681.035 118.606L678.639 116.86C679.552 115.468 680.579 114.384 681.72 113.607C682.884 112.809 684.357 112.409 686.137 112.409ZM684.802 128.159C686.582 128.159 688.009 127.6 689.082 126.481C690.154 125.34 690.851 123.868 691.17 122.064H687.815C685.509 122.064 683.797 122.338 682.679 122.886C681.56 123.411 681.001 124.267 681.001 125.454C681.001 126.276 681.321 126.938 681.96 127.44C682.599 127.919 683.546 128.159 684.802 128.159ZM702.856 121.414C702.856 123.537 702.959 125.009 703.165 125.831C703.393 126.63 703.861 127.143 704.568 127.371C705.299 127.6 706.611 127.714 708.506 127.714V130.624C705.858 130.624 703.941 130.362 702.754 129.837C701.567 129.312 700.802 128.444 700.46 127.234C700.117 126.025 699.946 124.084 699.946 121.414V115.662H696.214V112.751H699.946V105.972H702.856V112.751H708.437V115.662H702.856V121.414ZM714.951 109.875C714.381 109.875 713.902 109.693 713.513 109.328C713.148 108.94 712.966 108.472 712.966 107.924C712.966 107.376 713.148 106.919 713.513 106.554C713.902 106.166 714.381 105.972 714.951 105.972C715.476 105.972 715.922 106.166 716.287 106.554C716.675 106.919 716.869 107.376 716.869 107.924C716.869 108.472 716.675 108.94 716.287 109.328C715.922 109.693 715.476 109.875 714.951 109.875ZM713.479 112.751H716.39V130.624H713.479V112.751ZM729.224 131.138C727.513 131.138 725.972 130.715 724.602 129.871C723.256 129.026 722.194 127.885 721.418 126.447C720.665 124.986 720.288 123.388 720.288 121.654C720.288 119.942 720.665 118.367 721.418 116.929C722.194 115.491 723.256 114.361 724.602 113.539C725.972 112.694 727.513 112.272 729.224 112.272C730.914 112.272 732.431 112.694 733.778 113.539C735.148 114.361 736.209 115.491 736.962 116.929C737.716 118.367 738.092 119.942 738.092 121.654C738.092 123.411 737.716 125.009 736.962 126.447C736.209 127.885 735.148 129.026 733.778 129.871C732.431 130.715 730.914 131.138 729.224 131.138ZM729.224 128.227C730.366 128.227 731.381 127.953 732.272 127.406C733.185 126.858 733.892 126.093 734.394 125.112C734.919 124.107 735.182 122.966 735.182 121.688C735.182 120.41 734.919 119.28 734.394 118.298C733.892 117.317 733.185 116.552 732.272 116.004C731.381 115.456 730.366 115.182 729.224 115.182C728.06 115.182 727.022 115.456 726.109 116.004C725.219 116.552 724.511 117.317 723.986 118.298C723.484 119.28 723.233 120.41 723.233 121.688C723.233 122.966 723.484 124.107 723.986 125.112C724.511 126.093 725.219 126.858 726.109 127.406C727.022 127.953 728.06 128.227 729.224 128.227ZM750.628 112.272C755.398 112.272 757.783 115.023 757.783 120.524V130.624H754.873V120.524C754.873 118.766 754.462 117.442 753.641 116.552C752.819 115.662 751.678 115.217 750.217 115.217C748.573 115.217 747.204 115.799 746.108 116.963C745.012 118.104 744.465 119.793 744.465 122.03V130.624H741.52V112.751H744.465L743.574 118.093H744.259C745.035 114.212 747.158 112.272 750.628 112.272Z" fill="#1BB6FF"/>
<rect x="286.671" y="40" width="200.596" height="83.7982" rx="41.8991" transform="rotate(7.49 286.671 40)" fill="white"/>
<path d="M353.73 77.0664L350.16 104.224L347.172 103.831L349.855 83.429L338.584 102.702L335.495 102.296L329.271 80.5501L326.567 101.122L323.58 100.729L327.15 73.5718L330.239 73.9779L337.491 98.932L350.641 76.6603L353.73 77.0664ZM362.341 106.343C360.644 106.12 359.171 105.5 357.923 104.485C356.698 103.472 355.795 102.202 355.213 100.675C354.656 99.1283 354.491 97.495 354.717 95.7751C354.94 94.0777 355.519 92.5653 356.453 91.2377C357.41 89.9132 358.61 88.9313 360.052 88.2921C361.52 87.6333 363.103 87.4155 364.8 87.6386C366.475 87.8588 367.925 88.4753 369.15 89.4882C370.401 90.4815 371.306 91.7401 371.865 93.264C372.424 94.7879 372.593 96.3986 372.369 98.0959C372.14 99.8385 371.559 101.374 370.624 102.701C369.69 104.029 368.489 105.022 367.021 105.681C365.576 106.342 364.016 106.563 362.341 106.343ZM362.72 103.458C363.852 103.606 364.895 103.467 365.849 103.04C366.825 102.616 367.627 101.95 368.252 101.042C368.904 100.115 369.313 99.0178 369.479 97.7505C369.646 96.4831 369.533 95.3287 369.141 94.2871C368.771 93.2485 368.169 92.3981 367.335 91.736C366.524 91.0768 365.552 90.6728 364.421 90.5241C363.267 90.3723 362.201 90.5085 361.225 90.9326C360.271 91.3597 359.469 92.0256 358.821 92.9303C358.195 93.838 357.799 94.9255 357.632 96.1928C357.466 97.4602 357.566 98.6245 357.933 99.6857C358.325 100.727 358.927 101.578 359.738 102.237C360.572 102.899 361.566 103.306 362.72 103.458ZM380.694 98.9487C380.417 101.053 380.327 102.526 380.424 103.368C380.546 104.19 380.943 104.76 381.615 105.078C382.309 105.4 383.596 105.684 385.474 105.931L385.095 108.817C382.47 108.472 380.603 107.961 379.494 107.286C378.386 106.611 377.741 105.651 377.559 104.407C377.377 103.163 377.461 101.217 377.809 98.5693L378.559 92.8663L374.858 92.3798L375.238 89.4944L378.938 89.9808L379.822 83.2594L382.707 83.6388L381.823 90.3602L387.357 91.0877L386.977 93.9731L381.444 93.2456L380.694 98.9487ZM394.19 89.0853C393.624 89.0109 393.173 88.7674 392.836 88.3547C392.524 87.9224 392.404 87.4347 392.476 86.8915C392.547 86.3484 392.788 85.9196 393.197 85.6051C393.633 85.2709 394.133 85.141 394.699 85.2154C395.219 85.2839 395.635 85.5342 395.947 85.9666C396.284 86.3793 396.417 86.8572 396.345 87.4003C396.274 87.9435 396.021 88.3821 395.585 88.7162C395.176 89.0307 394.711 89.1538 394.19 89.0853ZM392.355 91.7449L395.241 92.1243L392.911 109.844L390.026 109.465L392.355 91.7449ZM405.57 112.027C403.872 111.803 402.4 111.184 401.152 110.168C399.927 109.155 399.023 107.885 398.441 106.358C397.885 104.812 397.72 103.179 397.946 101.459C398.169 99.7612 398.748 98.2488 399.682 96.9212C400.639 95.5966 401.839 94.6148 403.281 93.9756C404.749 93.3168 406.332 93.0989 408.029 93.3221C409.704 93.5423 411.153 94.1588 412.379 95.1717C413.629 96.165 414.534 97.4235 415.094 98.9475C415.653 100.471 415.821 102.082 415.598 103.779C415.369 105.522 414.787 107.057 413.853 108.385C412.919 109.712 411.718 110.705 410.25 111.364C408.804 112.026 407.244 112.247 405.57 112.027ZM405.949 109.141C407.081 109.29 408.123 109.151 409.077 108.724C410.054 108.3 410.855 107.634 411.481 106.726C412.133 105.799 412.542 104.701 412.708 103.434C412.875 102.167 412.762 101.012 412.369 99.9706C411.999 98.932 411.397 98.0816 410.564 97.4195C409.752 96.7603 408.781 96.3563 407.649 96.2075C406.495 96.0558 405.43 96.192 404.453 96.6161C403.499 97.0432 402.698 97.7091 402.05 98.6138C401.424 99.5215 401.027 100.609 400.861 101.876C400.694 103.144 400.794 104.308 401.161 105.369C401.554 106.411 402.156 107.261 402.967 107.92C403.801 108.582 404.795 108.989 405.949 109.141ZM429.249 96.1121C433.979 96.7339 435.986 99.7719 435.269 105.226L433.952 115.24L431.067 114.861L432.383 104.847C432.612 103.104 432.377 101.738 431.679 100.748C430.98 99.7584 429.907 99.1683 428.458 98.9779C426.829 98.7637 425.395 99.1622 424.157 100.174C422.922 101.162 422.159 102.766 421.867 104.983L420.747 113.504L417.827 113.12L420.157 95.4001L423.077 95.784L421.498 100.964L422.177 101.053C423.452 97.3067 425.809 95.6598 429.249 96.1121Z" fill="#1BB6FF"/>
<rect x="182.043" y="188.64" width="221.596" height="83.7982" rx="41.8991" transform="rotate(14.9017 182.043 188.64)" fill="white"/>
<path d="M213.656 254.379L210.81 253.622L217.854 227.152L227.714 229.776C230.868 230.616 233.312 231.951 235.045 233.782C236.8 235.619 237.27 238.07 236.454 241.137C235.943 243.056 235.008 244.484 233.648 245.421C232.289 246.358 230.711 246.872 228.916 246.961C227.121 247.05 225.253 246.836 223.312 246.32L216.297 244.453L213.656 254.379ZM224.051 243.54C229.367 244.955 232.504 243.865 233.46 240.269C233.959 238.394 233.593 236.797 232.362 235.477C231.13 234.157 229.335 233.184 226.974 232.555L219.96 230.689L217.037 241.674L224.051 243.54ZM240.849 248.648C241.699 246.961 242.74 245.845 243.972 245.299C245.232 244.736 246.744 244.69 248.509 245.159L247.716 248.137C247.546 248.068 247.284 247.987 246.931 247.893C245.343 247.47 243.932 247.626 242.697 248.36C241.462 249.095 240.575 250.477 240.035 252.506L237.825 260.811L234.979 260.054L239.575 242.782L242.421 243.539L240.187 248.472L240.849 248.648ZM254.404 265.754C252.75 265.314 251.37 264.51 250.263 263.341C249.179 262.179 248.447 260.803 248.067 259.214C247.714 257.608 247.761 255.967 248.207 254.291C248.648 252.637 249.417 251.212 250.514 250.016C251.634 248.826 252.95 248.007 254.463 247.559C256.004 247.095 257.601 247.083 259.256 247.523C260.888 247.958 262.246 248.756 263.331 249.919C264.443 251.065 265.178 252.43 265.536 254.013C265.894 255.596 265.853 257.215 265.413 258.87C264.961 260.568 264.186 262.015 263.088 263.211C261.991 264.407 260.671 265.237 259.131 265.701C257.612 266.171 256.037 266.189 254.404 265.754ZM255.153 262.942C256.256 263.235 257.308 263.232 258.309 262.931C259.332 262.637 260.212 262.08 260.95 261.26C261.716 260.425 262.263 259.39 262.592 258.154C262.92 256.919 262.957 255.76 262.702 254.676C262.469 253.598 261.982 252.678 261.241 251.913C260.521 251.155 259.61 250.629 258.507 250.336C257.382 250.036 256.308 250.034 255.285 250.329C254.284 250.629 253.404 251.186 252.644 251.999C251.906 252.819 251.373 253.846 251.044 255.081C250.715 256.317 250.665 257.484 250.892 258.584C251.147 259.667 251.634 260.588 252.353 261.347C253.095 262.111 254.028 262.642 255.153 262.942ZM291.396 246.722L284.352 273.192L281.506 272.435L283.219 267.328L282.558 267.152C281.634 268.938 280.472 270.152 279.073 270.795C277.673 271.439 276.069 271.52 274.26 271.038C272.76 270.639 271.51 269.881 270.508 268.764C269.512 267.625 268.843 266.278 268.501 264.722C268.181 263.173 268.238 261.582 268.673 259.95C269.119 258.273 269.869 256.831 270.922 255.623C272.004 254.4 273.26 253.541 274.69 253.048C276.12 252.554 277.586 252.507 279.085 252.906C280.828 253.37 282.133 254.237 282.999 255.507C283.894 256.761 284.338 258.331 284.332 260.219L285.06 260.413L286.102 255.163L288.55 245.965L291.396 246.722ZM275.944 268.439C276.937 268.703 277.937 268.674 278.944 268.352C279.973 268.035 280.875 267.484 281.651 266.698C282.427 265.913 282.956 264.991 283.238 263.932C283.56 262.719 283.597 261.559 283.348 260.454C283.099 259.348 282.604 258.413 281.862 257.649C281.149 256.869 280.274 256.341 279.237 256.065C278.112 255.765 277.016 255.757 275.949 256.04C274.909 256.307 273.988 256.841 273.184 257.643C272.408 258.428 271.858 259.427 271.536 260.641C271.213 261.854 271.19 263.005 271.467 264.095C271.75 265.162 272.284 266.083 273.069 266.859C273.861 267.613 274.819 268.14 275.944 268.439ZM309.285 261.332L304.688 278.604L301.843 277.847L304.077 272.914L303.415 272.738C301.667 276.288 299.117 277.617 295.764 276.725C291.154 275.498 289.556 272.227 290.971 266.911L293.568 257.15L296.381 257.899L293.783 267.659C293.331 269.358 293.388 270.743 293.953 271.814C294.518 272.886 295.507 273.61 296.918 273.985C298.506 274.408 299.977 274.209 301.329 273.387C302.687 272.544 303.654 271.042 304.229 268.88L306.439 260.575L309.285 261.332ZM325.136 280.077C324.034 281.201 322.732 281.965 321.231 282.368C319.758 282.756 318.173 282.724 316.474 282.272C314.82 281.831 313.448 281.041 312.357 279.901C311.273 278.738 310.541 277.362 310.161 275.773C309.803 274.19 309.847 272.56 310.293 270.883C310.733 269.229 311.499 267.815 312.591 266.641C313.711 265.451 315.027 264.632 316.54 264.184C318.058 263.715 319.645 263.7 321.299 264.14C323.064 264.61 324.499 265.429 325.606 266.597C326.74 267.749 327.488 269.153 327.851 270.808L325.203 271.84C324.544 269.255 323.024 267.646 320.641 267.012C319.516 266.713 318.442 266.71 317.419 267.005C316.402 267.277 315.513 267.82 314.753 268.634C314.022 269.431 313.494 270.436 313.171 271.65C312.667 273.547 312.802 275.212 313.578 276.647C314.359 278.06 315.61 278.995 317.331 279.453C318.456 279.752 319.527 279.765 320.544 279.493C321.561 279.22 322.483 278.686 323.309 277.89L325.136 280.077ZM335.467 277.264C334.921 279.315 334.642 280.764 334.629 281.611C334.644 282.442 334.964 283.059 335.589 283.461C336.237 283.87 337.476 284.317 339.306 284.805L338.558 287.617C335.999 286.936 334.214 286.189 333.202 285.377C332.19 284.564 331.674 283.529 331.654 282.272C331.634 281.015 331.968 279.096 332.655 276.515L334.134 270.957L330.527 269.997L331.276 267.185L334.882 268.144L336.626 261.593L339.438 262.341L337.695 268.893L343.088 270.328L342.34 273.14L336.946 271.705L335.467 277.264Z" fill="#1BB6FF"/>
<rect x="605.595" y="242.138" width="238.596" height="83.7982" rx="41.8991" fill="white"/>
<path d="M669.793 273.057H653.016V282.404L667.567 282.369V285.28H653.016V297.537H650.106V270.146H653.016V270.18L669.793 270.146V273.057ZM674.244 285.006C674.632 283.157 675.351 281.81 676.401 280.966C677.474 280.098 678.923 279.665 680.749 279.665V282.746C680.567 282.723 680.293 282.712 679.928 282.712C678.284 282.712 676.96 283.225 675.956 284.253C674.952 285.28 674.449 286.843 674.449 288.943V297.537H671.505V279.665H674.449L673.559 285.006H674.244ZM691.743 298.051C690.031 298.051 688.49 297.628 687.12 296.784C685.774 295.939 684.712 294.798 683.936 293.36C683.183 291.899 682.806 290.301 682.806 288.567C682.806 286.855 683.183 285.28 683.936 283.842C684.712 282.404 685.774 281.274 687.12 280.452C688.49 279.607 690.031 279.185 691.743 279.185C693.432 279.185 694.95 279.607 696.296 280.452C697.666 281.274 698.727 282.404 699.48 283.842C700.234 285.28 700.61 286.855 700.61 288.567C700.61 290.324 700.234 291.922 699.48 293.36C698.727 294.798 697.666 295.939 696.296 296.784C694.95 297.628 693.432 298.051 691.743 298.051ZM691.743 295.14C692.884 295.14 693.9 294.866 694.79 294.319C695.703 293.771 696.41 293.006 696.913 292.025C697.438 291.02 697.7 289.879 697.7 288.601C697.7 287.323 697.438 286.193 696.913 285.211C696.41 284.23 695.703 283.465 694.79 282.917C693.9 282.369 692.884 282.095 691.743 282.095C690.578 282.095 689.54 282.369 688.627 282.917C687.737 283.465 687.029 284.23 686.504 285.211C686.002 286.193 685.751 287.323 685.751 288.601C685.751 289.879 686.002 291.02 686.504 292.025C687.029 293.006 687.737 293.771 688.627 294.319C689.54 294.866 690.578 295.14 691.743 295.14ZM713.146 279.185C717.916 279.185 720.302 281.936 720.302 287.437V297.537H717.391V287.437C717.391 285.679 716.98 284.355 716.159 283.465C715.337 282.575 714.196 282.13 712.735 282.13C711.091 282.13 709.722 282.712 708.626 283.876C707.531 285.017 706.983 286.706 706.983 288.943V297.537H704.038V279.665H706.983L706.093 285.006H706.777C707.553 281.125 709.676 279.185 713.146 279.185ZM730.374 288.327C730.374 290.45 730.477 291.922 730.683 292.744C730.911 293.543 731.379 294.056 732.086 294.284C732.817 294.513 734.129 294.627 736.024 294.627V297.537C733.376 297.537 731.459 297.275 730.272 296.75C729.085 296.225 728.32 295.357 727.978 294.147C727.635 292.938 727.464 290.998 727.464 288.327V282.575H723.732V279.665H727.464V272.885H730.374V279.665H735.955V282.575H730.374V288.327ZM742.426 289.765C742.654 291.408 743.305 292.721 744.377 293.702C745.473 294.661 746.831 295.14 748.452 295.14C749.616 295.14 750.666 294.889 751.602 294.387C752.56 293.862 753.337 293.12 753.93 292.162L756.087 293.702C755.311 295.095 754.25 296.168 752.903 296.921C751.579 297.674 750.095 298.051 748.452 298.051C746.74 298.051 745.199 297.64 743.83 296.818C742.46 295.974 741.387 294.832 740.611 293.394C739.835 291.956 739.447 290.37 739.447 288.635C739.447 286.946 739.835 285.382 740.611 283.944C741.387 282.506 742.46 281.376 743.83 280.555C745.222 279.71 746.763 279.288 748.452 279.288C750.301 279.288 751.91 279.756 753.279 280.692C754.649 281.628 755.676 282.894 756.361 284.492C757.069 286.09 757.365 287.848 757.251 289.765H742.426ZM748.452 282.164C746.877 282.164 745.542 282.655 744.446 283.636C743.373 284.595 742.711 285.862 742.46 287.437H754.375C754.147 285.816 753.508 284.538 752.458 283.602C751.408 282.643 750.072 282.164 748.452 282.164ZM769.82 279.185C774.591 279.185 776.976 281.936 776.976 287.437V297.537H774.066V287.437C774.066 285.679 773.655 284.355 772.833 283.465C772.011 282.575 770.87 282.13 769.409 282.13C767.766 282.13 766.396 282.712 765.3 283.876C764.205 285.017 763.657 286.706 763.657 288.943V297.537H760.712V279.665H763.657L762.767 285.006H763.452C764.228 281.125 766.35 279.185 769.82 279.185ZM798.964 270.146V297.537H796.019L796.362 292.162H795.677C795.243 294.125 794.433 295.597 793.246 296.578C792.059 297.56 790.53 298.051 788.658 298.051C787.106 298.051 785.702 297.64 784.446 296.818C783.191 295.974 782.198 294.844 781.468 293.428C780.76 292.013 780.406 290.461 780.406 288.772C780.406 287.037 780.76 285.451 781.468 284.013C782.198 282.552 783.191 281.399 784.446 280.555C785.702 279.71 787.106 279.288 788.658 279.288C790.461 279.288 791.945 279.79 793.109 280.794C794.296 281.776 795.129 283.18 795.608 285.006H796.362L796.019 279.665V270.146H798.964ZM789.617 295.106C790.644 295.106 791.602 294.821 792.493 294.25C793.406 293.68 794.136 292.915 794.684 291.956C795.232 290.998 795.506 289.97 795.506 288.875C795.506 287.619 795.243 286.489 794.718 285.485C794.193 284.481 793.474 283.705 792.561 283.157C791.671 282.586 790.689 282.301 789.617 282.301C788.452 282.301 787.391 282.575 786.432 283.123C785.496 283.648 784.743 284.401 784.173 285.382C783.625 286.341 783.351 287.448 783.351 288.704C783.351 289.959 783.625 291.077 784.173 292.059C784.72 293.018 785.474 293.771 786.432 294.319C787.391 294.844 788.452 295.106 789.617 295.106Z" fill="#1BB6FF"/>
<rect x="648.394" y="158.682" width="186.596" height="83.7982" rx="41.8991" fill="white"/>
<path d="M714.474 195.421C714.474 197.156 714.018 198.639 713.105 199.872C712.215 201.082 710.982 202.018 709.407 202.68L714.337 214.081H711.153L706.6 203.501C705.458 203.707 704.294 203.809 703.107 203.809H695.849V214.081H692.904V186.69H703.107C706.6 186.69 709.361 187.341 711.393 188.642C713.447 189.92 714.474 192.18 714.474 195.421ZM703.107 200.933C706.052 200.933 708.163 200.488 709.441 199.598C710.72 198.685 711.359 197.27 711.359 195.353C711.359 191.495 708.608 189.566 703.107 189.566H695.849V200.933H703.107ZM720.224 206.309C720.453 207.952 721.103 209.265 722.176 210.246C723.272 211.205 724.63 211.684 726.25 211.684C727.414 211.684 728.464 211.433 729.4 210.931C730.359 210.406 731.135 209.664 731.729 208.706L733.886 210.246C733.109 211.639 732.048 212.712 730.701 213.465C729.377 214.218 727.894 214.595 726.25 214.595C724.538 214.595 722.998 214.184 721.628 213.362C720.259 212.517 719.186 211.376 718.41 209.938C717.634 208.5 717.246 206.914 717.246 205.179C717.246 203.49 717.634 201.926 718.41 200.488C719.186 199.05 720.259 197.92 721.628 197.099C723.02 196.254 724.561 195.832 726.25 195.832C728.099 195.832 729.708 196.3 731.078 197.236C732.448 198.172 733.475 199.438 734.159 201.036C734.867 202.634 735.164 204.392 735.05 206.309H720.224ZM726.25 198.708C724.675 198.708 723.34 199.199 722.244 200.18C721.172 201.139 720.51 202.406 720.259 203.981H732.174C731.945 202.36 731.306 201.082 730.256 200.146C729.206 199.187 727.871 198.708 726.25 198.708ZM746.523 195.866C749.125 195.866 751.111 196.574 752.48 197.989C753.85 199.381 754.535 201.219 754.535 203.501V214.081H751.693L752.206 208.637H751.624C751.122 210.623 750.3 212.107 749.159 213.088C748.018 214.07 746.626 214.56 744.982 214.56C742.768 214.56 741.136 214.058 740.086 213.054C739.036 212.05 738.511 210.771 738.511 209.219C738.511 207.051 739.333 205.499 740.976 204.563C742.62 203.627 745.028 203.159 748.2 203.159H751.761C751.693 201.789 751.179 200.728 750.221 199.975C749.262 199.199 748.029 198.811 746.523 198.811C745.313 198.811 744.32 199.085 743.544 199.632C742.768 200.18 742.06 200.99 741.421 202.063L739.025 200.317C739.938 198.925 740.965 197.841 742.106 197.064C743.27 196.266 744.742 195.866 746.523 195.866ZM745.187 211.616C746.968 211.616 748.394 211.057 749.467 209.938C750.54 208.797 751.236 207.325 751.556 205.521H748.2C745.895 205.521 744.183 205.795 743.065 206.343C741.946 206.868 741.387 207.724 741.387 208.911C741.387 209.733 741.707 210.395 742.346 210.897C742.985 211.376 743.932 211.616 745.187 211.616ZM774.679 210.246C773.903 211.616 772.842 212.689 771.495 213.465C770.171 214.218 768.63 214.595 766.873 214.595C765.161 214.595 763.632 214.184 762.285 213.362C760.938 212.517 759.877 211.376 759.101 209.938C758.347 208.5 757.971 206.914 757.971 205.179C757.971 203.467 758.347 201.904 759.101 200.488C759.877 199.05 760.938 197.92 762.285 197.099C763.632 196.254 765.161 195.832 766.873 195.832C768.699 195.832 770.297 196.254 771.666 197.099C773.059 197.92 774.143 199.085 774.919 200.591L772.625 202.269C771.324 199.941 769.441 198.776 766.976 198.776C765.811 198.776 764.773 199.05 763.86 199.598C762.947 200.123 762.228 200.876 761.703 201.858C761.201 202.817 760.95 203.924 760.95 205.179C760.95 207.142 761.509 208.717 762.627 209.904C763.746 211.068 765.195 211.65 766.976 211.65C768.14 211.65 769.178 211.388 770.091 210.863C771.004 210.338 771.758 209.584 772.351 208.603L774.679 210.246ZM783.939 204.871C783.939 206.994 784.042 208.466 784.247 209.288C784.476 210.087 784.943 210.6 785.651 210.828C786.382 211.057 787.694 211.171 789.589 211.171V214.081C786.941 214.081 785.023 213.819 783.836 213.294C782.65 212.769 781.885 211.901 781.542 210.691C781.2 209.482 781.029 207.541 781.029 204.871V199.119H777.297V196.209H781.029V189.429H783.939V196.209H789.52V199.119H783.939V204.871Z" fill="#1BB6FF"/>
<rect x="117.695" y="48.4639" width="161.596" height="83.7982" rx="41.8991" transform="rotate(-17.33 117.695 48.4639)" fill="white"/>
<path d="M187.452 56.0366L188.319 58.8148L180.246 61.3339L187.538 84.7032L184.76 85.5701L177.468 62.2008L169.395 64.7199L168.528 61.9417L187.452 56.0366ZM191.33 61.7848C190.785 61.9548 190.273 61.9233 189.794 61.6902C189.33 61.4286 189.016 61.0363 188.853 60.5133C188.689 59.9904 188.728 59.5002 188.968 59.0428C189.222 58.5568 189.622 58.2288 190.167 58.0588C190.668 57.9024 191.151 57.955 191.615 58.2167C192.094 58.4497 192.415 58.8277 192.579 59.3507C192.742 59.8736 192.696 60.3781 192.441 60.8641C192.201 61.3215 191.831 61.6284 191.33 61.7848ZM190.781 64.9688L193.559 64.1019L198.883 81.1632L196.105 82.0301L190.781 64.9688ZM195.435 53.5456L198.213 52.6787L206.372 78.8262L203.594 79.6931L195.435 53.5456ZM219.182 46.1355L227.341 72.283L224.531 73.1601L223.256 67.9266L222.603 68.1306C222.773 70.1337 222.438 71.7805 221.598 73.071C220.757 74.3615 219.443 75.2855 217.656 75.8431C216.175 76.3054 214.712 76.3313 213.269 75.9209C211.819 75.4886 210.535 74.7058 209.416 73.5724C208.319 72.4323 207.519 71.0559 207.016 69.4435C206.499 67.7875 206.364 66.1678 206.611 64.5842C206.873 62.9721 207.478 61.576 208.425 60.3958C209.372 59.2156 210.586 58.3944 212.068 57.932C213.789 57.3949 215.355 57.4323 216.765 58.0443C218.191 58.6277 219.404 59.7196 220.406 61.32L221.125 61.0956L219.207 56.0988L216.372 47.0126L219.182 46.1355ZM217.695 72.7466C218.675 72.4407 219.505 71.8827 220.185 71.0728C220.887 70.2561 221.356 69.3086 221.594 68.2303C221.831 67.1519 221.786 66.0898 221.46 65.0439C221.086 63.8455 220.499 62.8451 219.699 62.0427C218.898 61.2404 217.981 60.7137 216.946 60.4627C215.926 60.1831 214.904 60.2031 213.88 60.5227C212.769 60.8695 211.837 61.4471 211.085 62.2556C210.348 63.0355 209.854 63.979 209.601 65.0859C209.364 66.1642 209.432 67.3026 209.806 68.5011C210.18 69.6995 210.775 70.6856 211.59 71.4593C212.399 72.2113 213.342 72.706 214.42 72.9434C215.492 73.159 216.583 73.0934 217.695 72.7466ZM232.819 51.4925C235.303 50.7174 237.41 50.8014 239.139 51.7444C240.861 52.6656 242.062 54.2157 242.742 56.3946L245.893 66.4941L243.18 67.3406L242.049 61.9908L241.493 62.1642C241.606 64.2095 241.263 65.8705 240.466 67.1475C239.669 68.4244 238.486 69.3076 236.917 69.7971C234.803 70.4567 233.096 70.4634 231.794 69.8175C230.493 69.1715 229.611 68.1076 229.149 66.626C228.503 64.556 228.825 62.8295 230.115 61.4466C231.405 60.0637 233.564 58.8997 236.593 57.9546L239.992 56.8939C239.519 55.6069 238.713 54.7467 237.573 54.3132C236.427 53.8579 235.134 53.8546 233.696 54.3034C232.542 54.6638 231.675 55.221 231.098 55.9751C230.52 56.7292 230.086 57.7135 229.795 58.928L226.987 57.975C227.444 56.3739 228.102 55.0329 228.96 53.9521C229.833 52.8427 231.12 52.0229 232.819 51.4925ZM236.236 66.9251C237.936 66.3948 239.131 65.436 239.822 64.0487C240.506 62.6397 240.732 61.0269 240.5 59.2103L237.297 60.2098C235.096 60.8965 233.543 61.6679 232.639 62.524C231.728 63.3584 231.449 64.342 231.802 65.4751C232.047 66.2595 232.549 66.7962 233.309 67.0852C234.062 67.3524 235.038 67.2991 236.236 66.9251Z" fill="#1BB6FF"/>
<rect x="6.41968" y="171.888" width="288.596" height="83.7982" rx="41.8991" transform="rotate(-17.3294 6.41968 171.888)" fill="white"/>
<path d="M60.1609 184.459L72.9077 204.62L72.2869 180.675L75.1958 179.768L87.9425 199.929L87.3217 175.984L90.2306 175.076L90.7412 203.61L87.6362 204.579L75.1303 184.845L75.7064 208.302L72.6014 209.27L57.252 185.367L60.1609 184.459ZM98.9429 192.909C99.6503 194.41 100.662 195.469 101.979 196.087C103.31 196.676 104.749 196.729 106.297 196.246C107.408 195.899 108.335 195.347 109.079 194.589C109.838 193.802 110.358 192.863 110.639 191.771L113.157 192.599C112.831 194.159 112.137 195.5 111.076 196.62C110.036 197.733 108.732 198.535 107.163 199.024C105.529 199.534 103.936 199.601 102.384 199.224C100.825 198.826 99.4609 198.056 98.2917 196.915C97.1225 195.773 96.2795 194.374 95.7628 192.718C95.2597 191.106 95.1644 189.498 95.4769 187.894C95.7894 186.29 96.477 184.892 97.5396 183.699C98.6172 182.478 99.9622 181.616 101.575 181.113C103.34 180.562 105.015 180.53 106.601 181.015C108.187 181.501 109.545 182.404 110.675 183.725C111.826 185.04 112.633 186.629 113.095 188.494L98.9429 192.909ZM102.431 183.859C100.928 184.328 99.7993 185.194 99.0458 186.457C98.3072 187.692 98.0527 189.098 98.2821 190.677L109.656 187.128C108.956 185.649 107.965 184.619 106.684 184.038C105.396 183.436 103.978 183.376 102.431 183.859ZM123.117 174.391C124.598 173.929 126.064 173.914 127.514 174.346C128.964 174.779 130.245 175.587 131.355 176.77C132.481 177.925 133.302 179.331 133.819 180.987C134.322 182.6 134.436 184.19 134.16 185.759C133.906 187.32 133.305 188.691 132.359 189.871C131.405 191.03 130.187 191.84 128.706 192.302C126.919 192.86 125.313 192.847 123.887 192.264C122.462 191.68 121.25 190.516 120.251 188.771L119.597 188.975L121.525 194.005L118.715 194.882L110.556 168.734L113.367 167.857L116.202 176.944L117.466 182.144L118.185 181.92C118.077 180.041 118.443 178.456 119.284 177.165C120.14 175.846 121.417 174.922 123.117 174.391ZM126.913 189.777C128.025 189.43 128.96 188.864 129.718 188.077C130.47 187.268 130.965 186.325 131.202 185.247C131.433 184.146 131.361 182.997 130.987 181.799C130.613 180.6 130.011 179.629 129.181 178.883C128.366 178.11 127.422 177.615 126.351 177.399C125.294 177.155 124.21 177.206 123.099 177.553C122.075 177.873 121.212 178.441 120.51 179.257C119.824 180.046 119.38 180.997 119.178 182.112C118.976 183.227 119.061 184.384 119.435 185.583C119.762 186.629 120.329 187.528 121.138 188.279C121.946 189.031 122.86 189.547 123.88 189.827C124.922 190.1 125.933 190.083 126.913 189.777ZM148.555 156.878C153.24 155.416 156.999 155.51 159.833 157.16C162.661 158.789 164.703 161.618 165.961 165.649C167.233 169.724 167.182 173.279 165.81 176.313C164.43 179.326 161.398 181.563 156.714 183.025L147.856 185.789L139.697 159.641L142.475 158.774L142.486 158.807L148.555 156.878ZM155.847 180.247C159.457 179.097 161.837 177.338 162.987 174.97C164.138 172.603 164.203 169.785 163.183 166.516C162.204 163.379 160.561 161.177 158.253 159.913C155.961 158.62 153.017 158.534 149.422 159.656L143.342 161.553L149.778 182.177L155.847 180.247ZM173.887 169.525C174.595 171.026 175.607 172.085 176.923 172.702C178.255 173.291 179.694 173.344 181.241 172.861C182.352 172.514 183.28 171.962 184.024 171.204C184.782 170.417 185.302 169.478 185.583 168.386L188.101 169.214C187.775 170.775 187.081 172.115 186.02 173.235C184.981 174.348 183.677 175.15 182.108 175.639C180.474 176.149 178.88 176.216 177.328 175.84C175.769 175.441 174.405 174.671 173.236 173.53C172.067 172.388 171.224 170.989 170.707 169.333C170.204 167.721 170.109 166.113 170.421 164.509C170.734 162.905 171.421 161.507 172.484 160.314C173.562 159.093 174.907 158.231 176.519 157.728C178.284 157.178 179.96 157.145 181.546 157.63C183.132 158.116 184.49 159.019 185.619 160.34C186.771 161.655 187.578 163.244 188.04 165.109L173.887 169.525ZM177.376 160.474C175.872 160.943 174.744 161.809 173.99 163.072C173.252 164.307 172.997 165.714 173.227 167.292L184.601 163.743C183.9 162.264 182.909 161.234 181.628 160.653C180.34 160.051 178.923 159.991 177.376 160.474ZM194.411 165.057C195.295 166.049 196.21 166.684 197.158 166.962C198.105 167.24 199.124 167.21 200.213 166.87C201.542 166.455 202.52 165.911 203.147 165.237C203.774 164.563 203.985 163.899 203.781 163.246C203.57 162.57 203.142 162.118 202.497 161.889C201.867 161.631 200.803 161.557 199.307 161.665L198.136 161.707C195.772 161.871 194.007 161.693 192.84 161.172C191.674 160.651 190.879 159.715 190.458 158.364C190.206 157.558 190.204 156.746 190.451 155.928C190.713 155.081 191.247 154.304 192.055 153.598C192.878 152.863 193.965 152.285 195.316 151.863C197.015 151.333 198.543 151.287 199.899 151.724C201.255 152.162 202.503 152.98 203.642 154.179L201.748 156.384C200.828 155.428 199.908 154.818 198.989 154.555C198.092 154.285 197.153 154.303 196.172 154.609C194.909 155.003 194.065 155.481 193.643 156.044C193.214 156.584 193.088 157.137 193.265 157.704C193.448 158.292 193.826 158.7 194.4 158.928C194.973 159.155 195.957 159.243 197.351 159.191L198.511 159.115C200.947 158.953 202.766 159.151 203.968 159.708C205.186 160.237 206.001 161.166 206.416 162.495C206.675 163.323 206.65 164.203 206.344 165.136C206.037 166.069 205.435 166.938 204.539 167.744C203.643 168.549 202.486 169.173 201.07 169.615C199.283 170.173 197.693 170.25 196.301 169.848C194.908 169.446 193.596 168.612 192.364 167.346L194.411 165.057ZM207.057 145.581C206.512 145.751 206 145.72 205.521 145.487C205.057 145.225 204.743 144.833 204.58 144.31C204.417 143.787 204.455 143.297 204.695 142.839C204.95 142.353 205.35 142.025 205.895 141.855C206.396 141.699 206.878 141.752 207.343 142.013C207.822 142.246 208.143 142.624 208.306 143.147C208.469 143.67 208.424 144.175 208.169 144.661C207.929 145.118 207.558 145.425 207.057 145.581ZM206.508 148.765L209.287 147.898L214.61 164.96L211.832 165.827L206.508 148.765ZM229.352 167.533C227.413 168.138 225.706 168.3 224.231 168.019C222.779 167.731 221.455 167.092 220.262 166.102L222.017 163.796C222.94 164.608 223.909 165.107 224.923 165.293C225.959 165.471 227.164 165.347 228.536 164.918C230.476 164.313 231.824 163.271 232.582 161.791C233.361 160.304 233.564 158.615 233.189 156.724L232.608 153.713L231.921 153.927C232.242 157.868 230.594 160.403 226.977 161.531C225.539 161.98 224.088 162.003 222.623 161.599C221.173 161.167 219.888 160.384 218.769 159.25C217.644 158.095 216.826 156.7 216.316 155.066C215.806 153.432 215.678 151.834 215.932 150.272C216.208 148.704 216.823 147.34 217.776 146.182C218.73 145.024 219.948 144.213 221.429 143.751C223.107 143.227 224.659 143.257 226.084 143.841C227.525 144.396 228.749 145.484 229.757 147.106L230.476 146.882L228.558 141.885L231.369 141.008L235.102 152.971C236.265 156.697 236.352 159.813 235.365 162.321C234.385 164.851 232.381 166.588 229.352 167.533ZM227.046 158.533C228.005 158.234 228.834 157.712 229.534 156.967C230.256 156.216 230.733 155.29 230.963 154.19C231.216 153.083 231.138 151.876 230.73 150.569C230.138 148.673 229.157 147.365 227.784 146.646C226.427 145.898 224.91 145.785 223.232 146.309C222.12 146.656 221.185 147.222 220.427 148.009C219.668 148.796 219.159 149.732 218.9 150.817C218.662 151.895 218.727 153.023 219.094 154.199C219.475 155.42 220.073 156.417 220.888 157.19C221.725 157.957 222.683 158.46 223.762 158.697C224.84 158.934 225.935 158.88 227.046 158.533ZM243.519 136.715C248.073 135.294 251.17 137.209 252.808 142.46L255.817 152.102L253.039 152.969L250.03 143.327C249.507 141.649 248.72 140.508 247.67 139.903C246.621 139.298 245.399 139.213 244.004 139.648C242.435 140.137 241.301 141.101 240.602 142.539C239.896 143.955 239.876 145.73 240.543 147.865L243.103 156.069L240.292 156.946L234.968 139.885L237.779 139.008L238.52 144.372L239.174 144.168C238.759 140.233 240.207 137.748 243.519 136.715Z" fill="#1BB6FF"/>
<rect x="295.533" y="126.582" width="360.596" height="83.7982" rx="41.8991" transform="rotate(7.49066 295.533 126.582)" fill="white"/>
<path d="M358.377 176.528C357.812 180.828 356.436 184.112 354.25 186.38C352.067 188.625 348.871 189.471 344.662 188.918C342.036 188.573 339.885 187.691 338.206 186.273C336.528 184.855 335.36 183.056 334.703 180.874C334.046 178.693 333.893 176.267 334.244 173.597C334.592 170.949 335.351 168.677 336.522 166.782C337.714 164.89 339.302 163.499 341.283 162.608C343.268 161.695 345.573 161.411 348.199 161.756C353.539 162.458 356.956 165.187 358.449 169.942L355.667 171.406C355.116 169.469 354.201 167.933 352.923 166.798C351.645 165.663 349.942 164.955 347.815 164.676C345.936 164.429 344.238 164.654 342.718 165.352C341.222 166.053 339.996 167.147 339.041 168.633C338.086 170.119 337.471 171.903 337.198 173.985C336.912 176.157 337.035 178.108 337.568 179.835C338.103 181.54 339.002 182.936 340.263 184.023C341.55 185.09 343.145 185.748 345.046 185.998C347.674 186.321 349.828 185.868 351.509 184.638C353.191 183.409 354.385 181.505 355.092 178.928L345.825 177.709L346.186 174.96L355.628 176.167L358.377 176.528ZM364.173 178.844C364.799 177.062 365.687 175.82 366.838 175.12C368.015 174.399 369.509 174.158 371.319 174.397L370.917 177.452C370.739 177.405 370.469 177.358 370.107 177.311C368.478 177.096 367.098 177.433 365.968 178.32C364.839 179.208 364.137 180.693 363.863 182.775L362.743 191.295L359.824 190.911L362.153 173.191L365.073 173.575L363.494 178.755L364.173 178.844ZM381.678 175.413C384.258 175.752 386.135 176.713 387.308 178.295C388.484 179.854 388.924 181.765 388.626 184.028L387.247 194.517L384.429 194.147L385.648 188.816L385.071 188.74C384.314 190.644 383.306 192.008 382.047 192.832C380.787 193.656 379.343 193.961 377.713 193.747C375.518 193.458 373.966 192.748 373.055 191.615C372.145 190.483 371.791 189.147 371.994 187.608C372.276 185.458 373.294 184.026 375.045 183.313C376.796 182.599 379.245 182.449 382.391 182.863L385.921 183.327C386.032 181.96 385.661 180.841 384.809 179.969C383.959 179.074 382.788 178.529 381.294 178.333C380.095 178.175 379.075 178.317 378.234 178.759C377.393 179.201 376.586 179.912 375.812 180.892L373.664 178.849C374.75 177.587 375.91 176.646 377.143 176.026C378.401 175.385 379.913 175.181 381.678 175.413ZM378.301 190.855C380.066 191.087 381.553 190.718 382.763 189.749C383.975 188.757 384.858 187.388 385.409 185.642L382.083 185.205C379.797 184.904 378.064 184.953 376.884 185.35C375.706 185.725 375.04 186.501 374.885 187.677C374.778 188.492 375.009 189.19 375.577 189.771C376.148 190.33 377.056 190.691 378.301 190.855ZM403.45 178.241C404.988 178.444 406.325 179.045 407.46 180.046C408.594 181.047 409.417 182.318 409.928 183.859C410.462 185.402 410.614 187.046 410.385 188.788C410.168 190.44 409.605 191.92 408.696 193.228C407.813 194.516 406.694 195.497 405.34 196.171C403.988 196.822 402.542 197.046 401.004 196.844C399.193 196.606 397.763 195.923 396.715 194.795C395.669 193.645 395.043 192.1 394.837 190.163L394.124 190.069L392.879 202.164L389.96 201.781L393.183 177.271L396.102 177.655L395.057 182.974L395.77 183.068C396.47 181.249 397.472 179.93 398.777 179.112C400.081 178.294 401.639 178.003 403.45 178.241ZM400.437 193.8C401.591 193.951 402.666 193.828 403.663 193.43C404.682 193.034 405.525 192.397 406.193 191.518C406.887 190.619 407.314 189.558 407.475 188.336C407.642 187.069 407.517 185.913 407.102 184.869C406.687 183.824 406.038 182.979 405.156 182.334C404.277 181.665 403.26 181.255 402.106 181.104C401.088 180.97 400.09 181.115 399.114 181.539C398.16 181.966 397.349 182.619 396.68 183.498C396.015 184.355 395.61 185.337 395.464 186.446C395.303 187.668 395.416 188.823 395.803 189.91C396.193 190.974 396.79 191.858 397.595 192.563C398.426 193.247 399.373 193.66 400.437 193.8ZM424.36 180.887C429.068 181.506 431.063 184.543 430.346 189.997L429.029 200.011L426.143 199.632L427.46 189.617C427.689 187.875 427.454 186.509 426.756 185.519C426.057 184.529 424.995 183.941 423.569 183.753C421.94 183.539 420.495 183.936 419.234 184.944C417.999 185.933 417.236 187.536 416.944 189.754L415.824 198.275L412.904 197.891L416.475 170.734L419.394 171.118L418.154 180.555L416.575 185.734L417.288 185.828C418.518 182.076 420.875 180.429 424.36 180.887ZM438.125 180.28C437.559 180.205 437.108 179.962 436.771 179.549C436.459 179.117 436.339 178.629 436.411 178.086C436.482 177.543 436.723 177.114 437.132 176.8C437.568 176.465 438.068 176.336 438.634 176.41C439.155 176.478 439.571 176.729 439.882 177.161C440.219 177.574 440.352 178.052 440.281 178.595C440.209 179.138 439.956 179.577 439.521 179.911C439.111 180.225 438.646 180.348 438.125 180.28ZM436.291 182.939L439.176 183.319L436.846 201.039L433.961 200.659L436.291 182.939ZM458.805 200.058C457.857 201.315 456.665 202.24 455.228 202.834C453.818 203.408 452.241 203.581 450.498 203.352C448.801 203.129 447.338 202.522 446.11 201.532C444.885 200.519 443.981 199.249 443.399 197.722C442.84 196.198 442.673 194.576 442.9 192.856C443.123 191.159 443.7 189.658 444.631 188.353C445.588 187.028 446.788 186.046 448.23 185.407C449.676 184.745 451.247 184.526 452.944 184.749C454.755 184.987 456.284 185.614 457.532 186.63C458.805 187.626 459.728 188.922 460.301 190.517L457.808 191.881C456.822 189.403 455.106 188.003 452.662 187.682C451.508 187.53 450.443 187.666 449.466 188.091C448.492 188.492 447.681 189.145 447.033 190.05C446.41 190.935 446.017 192 445.853 193.244C445.597 195.191 445.946 196.825 446.9 198.148C447.858 199.448 449.219 200.214 450.984 200.446C452.138 200.598 453.202 200.473 454.176 200.071C455.149 199.67 455.994 199.021 456.711 198.125L458.805 200.058ZM465.314 198.808C465.699 200.079 466.264 201.039 467.007 201.689C467.75 202.34 468.688 202.739 469.819 202.888C471.2 203.069 472.316 202.986 473.168 202.638C474.019 202.289 474.49 201.775 474.579 201.096C474.671 200.395 474.472 199.805 473.983 199.326C473.519 198.828 472.585 198.313 471.181 197.783L470.101 197.331C467.887 196.487 466.36 195.584 465.519 194.622C464.679 193.659 464.351 192.477 464.535 191.073C464.645 190.236 464.984 189.498 465.552 188.859C466.145 188.2 466.956 187.72 467.986 187.418C469.041 187.096 470.27 187.027 471.673 187.212C473.439 187.444 474.845 188.043 475.892 189.01C476.939 189.976 477.728 191.243 478.259 192.809L475.614 194.015C475.18 192.761 474.601 191.821 473.878 191.197C473.177 190.575 472.317 190.197 471.298 190.063C469.986 189.891 469.02 189.971 468.401 190.304C467.784 190.614 467.437 191.064 467.36 191.652C467.28 192.263 467.452 192.792 467.876 193.239C468.301 193.687 469.157 194.179 470.445 194.717L471.529 195.136C473.809 196.011 475.377 196.954 476.234 197.964C477.117 198.955 477.467 200.141 477.286 201.521C477.173 202.381 476.781 203.17 476.111 203.888C475.441 204.606 474.53 205.142 473.379 205.497C472.227 205.852 470.915 205.933 469.444 205.739C467.589 205.495 466.113 204.899 465.018 203.949C463.923 202.999 463.082 201.691 462.495 200.026L465.314 198.808ZM501.55 181.92C506.416 182.56 509.789 184.223 511.669 186.911C513.551 189.576 514.217 193.002 513.667 197.188C513.11 201.42 511.572 204.625 509.053 206.803C506.536 208.959 502.845 209.717 497.98 209.077L488.78 207.867L492.351 180.71L495.236 181.09L495.232 181.124L501.55 181.92ZM498.359 206.192C502.119 206.663 505.017 206.066 507.055 204.4C509.093 202.734 510.335 200.204 510.781 196.809C511.21 193.55 510.642 190.862 509.079 188.746C507.541 186.61 504.905 185.296 501.171 184.805L494.857 183.975L492.04 205.395L498.359 206.192ZM519.234 204.033C519.246 205.692 519.72 207.078 520.656 208.191C521.617 209.284 522.901 209.937 524.508 210.148C525.662 210.3 526.736 210.188 527.729 209.812C528.748 209.416 529.614 208.782 530.328 207.909L532.265 209.717C531.314 210.997 530.122 211.922 528.689 212.493C527.278 213.068 525.758 213.248 524.129 213.033C522.431 212.81 520.957 212.202 519.706 211.209C518.459 210.193 517.544 208.921 516.962 207.394C516.38 205.868 516.202 204.244 516.428 202.524C516.648 200.849 517.237 199.35 518.194 198.025C519.151 196.701 520.362 195.72 521.827 195.084C523.317 194.428 524.9 194.21 526.575 194.431C528.408 194.672 529.942 195.345 531.178 196.452C532.414 197.558 533.267 198.948 533.738 200.622C534.231 202.298 534.296 204.079 533.933 205.965L519.234 204.033ZM526.2 197.282C524.638 197.077 523.25 197.389 522.036 198.22C520.847 199.03 520.026 200.2 519.572 201.729L531.385 203.282C531.37 201.646 530.903 200.295 529.984 199.23C529.068 198.143 527.806 197.493 526.2 197.282ZM539.738 208.593C540.123 209.864 540.687 210.825 541.431 211.475C542.174 212.125 543.111 212.525 544.243 212.674C545.623 212.855 546.739 212.772 547.591 212.423C548.443 212.075 548.913 211.561 549.002 210.882C549.095 210.181 548.896 209.59 548.406 209.112C547.942 208.613 547.008 208.099 545.605 207.569L544.525 207.116C542.31 206.273 540.783 205.37 539.943 204.407C539.102 203.445 538.774 202.262 538.959 200.859C539.069 200.022 539.408 199.284 539.975 198.645C540.568 197.986 541.38 197.505 542.409 197.203C543.465 196.882 544.694 196.813 546.097 196.998C547.862 197.23 549.268 197.829 550.315 198.795C551.362 199.762 552.151 201.028 552.682 202.595L550.037 203.801C549.603 202.547 549.025 201.607 548.301 200.982C547.6 200.361 546.74 199.983 545.722 199.849C544.409 199.677 543.443 199.757 542.824 200.09C542.208 200.4 541.861 200.849 541.783 201.438C541.703 202.049 541.875 202.578 542.3 203.025C542.725 203.472 543.581 203.965 544.868 204.502L545.953 204.921C548.232 205.797 549.8 206.739 550.657 207.75C551.54 208.741 551.891 209.927 551.709 211.307C551.596 212.167 551.205 212.956 550.535 213.674C549.865 214.391 548.954 214.928 547.802 215.283C546.65 215.638 545.339 215.719 543.868 215.525C542.012 215.281 540.537 214.684 539.441 213.734C538.346 212.785 537.505 211.477 536.918 209.811L539.738 208.593ZM559.391 196.225C558.825 196.15 558.374 195.907 558.036 195.494C557.725 195.062 557.605 194.574 557.676 194.031C557.748 193.488 557.988 193.059 558.398 192.744C558.833 192.41 559.334 192.28 559.9 192.355C560.42 192.423 560.836 192.674 561.148 193.106C561.485 193.519 561.618 193.997 561.546 194.54C561.475 195.083 561.221 195.521 560.786 195.856C560.376 196.17 559.911 196.293 559.391 196.225ZM557.556 198.884L560.442 199.264L558.112 216.984L555.226 216.604L557.556 198.884ZM570.412 225.508C568.398 225.243 566.78 224.673 565.56 223.799C564.362 222.928 563.429 221.792 562.762 220.392L565.323 219.037C565.82 220.161 566.489 221.021 567.332 221.615C568.197 222.212 569.343 222.604 570.769 222.792C572.783 223.057 574.444 222.677 575.753 221.652C577.085 220.629 577.977 219.181 578.431 217.307L579.168 214.331L578.455 214.237C577.092 217.948 574.532 219.557 570.776 219.063C569.282 218.867 567.955 218.278 566.795 217.297C565.66 216.296 564.823 215.046 564.283 213.548C563.747 212.027 563.59 210.417 563.813 208.72C564.036 207.023 564.591 205.519 565.477 204.208C566.386 202.9 567.516 201.92 568.868 201.269C570.219 200.618 571.665 200.394 573.204 200.596C574.946 200.825 576.342 201.504 577.391 202.632C578.465 203.74 579.12 205.242 579.354 207.138L580.101 207.236L580.458 201.895L583.377 202.279L581.743 214.704C581.234 218.574 580.006 221.439 578.057 223.301C576.106 225.186 573.557 225.921 570.412 225.508ZM572.097 216.371C573.092 216.502 574.064 216.376 575.012 215.994C575.983 215.615 576.804 214.975 577.475 214.073C578.169 213.175 578.605 212.046 578.783 210.688C579.042 208.72 578.7 207.121 577.757 205.891C576.839 204.643 575.508 203.904 573.766 203.675C572.612 203.523 571.525 203.645 570.506 204.04C569.487 204.436 568.632 205.072 567.942 205.948C567.274 206.827 566.859 207.877 566.698 209.099C566.532 210.367 566.656 211.523 567.071 212.567C567.509 213.615 568.168 214.473 569.047 215.141C569.926 215.809 570.942 216.219 572.097 216.371ZM596.207 203.483C600.937 204.105 602.943 207.143 602.226 212.597L600.909 222.611L598.024 222.232L599.341 212.217C599.57 210.475 599.335 209.109 598.636 208.119C597.938 207.129 596.864 206.539 595.416 206.349C593.786 206.134 592.353 206.533 591.115 207.544C589.879 208.533 589.116 210.136 588.825 212.354L587.704 220.875L584.785 220.491L587.115 202.771L590.034 203.155L588.455 208.334L589.134 208.423C590.409 204.677 592.767 203.031 596.207 203.483Z" fill="#1BB6FF"/>
</svg>
